<?xml version="1.0" encoding="UTF-8" standalone="no"?>
<!-- Created with Inkscape (http://www.inkscape.org/) -->

<svg
   width="47.099819mm"
   height="52.652061mm"
   viewBox="0 0 47.099819 52.652061"
   version="1.1"
   id="svg1"
   xml:space="preserve"
   inkscape:export-filename="seepferde.png"
   inkscape:export-xdpi="96"
   inkscape:export-ydpi="96"
   xmlns:inkscape="http://www.inkscape.org/namespaces/inkscape"
   xmlns:sodipodi="http://sodipodi.sourceforge.net/DTD/sodipodi-0.dtd"
   xmlns="http://www.w3.org/2000/svg"
   xmlns:svg="http://www.w3.org/2000/svg"><sodipodi:namedview
     id="namedview1"
     pagecolor="#ffffff"
     bordercolor="#000000"
     borderopacity="0.25"
     inkscape:showpageshadow="2"
     inkscape:pageopacity="0.0"
     inkscape:pagecheckerboard="0"
     inkscape:deskcolor="#d1d1d1"
     inkscape:document-units="mm" /><defs
     id="defs1" /><g
     inkscape:label="Layer 1"
     inkscape:groupmode="layer"
     id="layer1"
     transform="translate(-81.520205,-134.30761)"><path
       style="fill:#3a2512;fill-opacity:1"
       d="m 99.821462,186.84128 c -1.25332,-0.40202 -2.02262,-2.04217 -1.6465,-3.51032 0.27302,-1.06571 0.90712,-1.73669 1.884168,-1.99379 1.44756,-0.3809 2.68351,0.48296 2.80194,1.95841 l 0.0434,0.54071 h -1.74726 -1.747258 v 0.3233 c 0,0.54899 0.24161,1.19398 0.58528,1.5624 0.282528,0.30289 0.371918,0.34618 0.785668,0.38049 0.54858,0.0455 1.04203,-0.13816 1.53562,-0.57155 0.30541,-0.26815 0.32106,-0.27224 0.48254,-0.1261 0.0918,0.0831 0.16689,0.18408 0.16689,0.22447 0,0.16801 -0.74384,0.86258 -1.1396,1.06412 -0.53051,0.27016 -1.4193,0.3357 -2.004898,0.14786 z m 1.789828,-3.84994 c 0,-0.0922 -0.0619,-0.32226 -0.13749,-0.51126 -0.38281,-0.95673 -1.661728,-0.68198 -1.979268,0.42522 l -0.0727,0.25366 h 1.094758 c 1.03458,0 1.09475,-0.009 1.09475,-0.16762 z m 14.68967,3.85559 c -0.71297,-0.26296 -1.10054,-0.9833 -0.89614,-1.66555 0.22769,-0.75995 0.96577,-1.23947 2.29443,-1.49064 l 0.77633,-0.14676 -0.0589,-0.55235 c -0.0679,-0.63758 -0.13661,-0.79618 -0.42706,-0.9865 -0.1493,-0.0978 -0.32297,-0.12513 -0.59842,-0.0941 -0.5182,0.0584 -0.66477,0.21764 -0.63568,0.69062 0.0198,0.32232 -0.008,0.39623 -0.19113,0.51653 -0.2451,0.1606 -0.65069,0.11029 -0.8274,-0.10263 -0.0605,-0.0729 -0.10623,-0.27472 -0.10168,-0.44856 0.0336,-1.28115 2.56425,-1.83634 3.52468,-0.77326 0.40738,0.45092 0.48526,0.89491 0.48526,2.76637 v 1.56217 h 0.33867 0.33867 v 0.33867 0.33866 h -0.889 -0.889 v -0.26876 -0.26876 l -0.1905,0.17419 c -0.50622,0.46288 -1.41742,0.64512 -2.05317,0.41064 z m 1.45499,-0.81469 c 0.13109,-0.0495 0.34312,-0.19001 0.47118,-0.31218 0.21328,-0.20347 0.23283,-0.27508 0.23283,-0.85279 v -0.63066 l -0.40217,0.0551 c -0.96992,0.13287 -1.58383,0.73468 -1.37987,1.35268 0.14073,0.42641 0.56857,0.58034 1.07803,0.38786 z m 4.55634,0.80955 c -0.18626,-0.0659 -0.44149,-0.23406 -0.56718,-0.37379 -0.39546,-0.43965 -0.49115,-0.96361 -0.49115,-2.68941 v -1.55097 h -0.33867 -0.33866 v -0.33866 -0.33867 l 0.40216,-0.004 c 0.2212,-0.002 0.55457,-0.0586 0.74084,-0.12572 0.18626,-0.0671 0.42439,-0.12259 0.52916,-0.12329 l 0.1905,-0.001 v 1.82517 c 0,1.06871 0.0394,1.98157 0.095,2.20252 0.11366,0.45138 0.48139,0.79831 0.84619,0.79831 0.26598,0 0.82754,-0.25049 0.98389,-0.43888 0.0589,-0.071 0.10374,-0.73015 0.12134,-1.78427 l 0.0279,-1.67169 -0.3175,9e-5 c -0.31399,8e-5 -0.3175,-0.004 -0.3175,-0.33858 v -0.33867 h 0.38372 c 0.21104,0 0.52049,-0.0571 0.68767,-0.127 0.16717,-0.0699 0.4136,-0.127 0.54761,-0.127 h 0.24366 v 2.40789 2.40789 l 0.3175,0.0263 c 0.30026,0.0249 0.31893,0.0435 0.34378,0.34378 l 0.0263,0.3175 h -0.89411 c -0.89151,0 -0.89411,-6e-4 -0.89411,-0.20667 0,-0.26598 -0.11872,-0.33747 -0.26558,-0.15992 -0.0635,0.0768 -0.30592,0.22835 -0.53876,0.33691 -0.48362,0.22547 -1.0182,0.25067 -1.524,0.0719 z m -30.635268,-0.021 c -0.0211,-0.0349 -0.0771,-0.19685 -0.12459,-0.35983 -0.17173,-0.58955 -1.36581,-4.06519 -1.45187,-4.22599 -0.0485,-0.0907 -0.17404,-0.17704 -0.27892,-0.19194 -0.15323,-0.0218 -0.19584,-0.0894 -0.21696,-0.34457 l -0.0263,-0.3175 h 1.23278 1.23278 v 0.29633 c 0,0.22891 -0.0347,0.29633 -0.1524,0.29633 -0.21317,0 -0.3556,0.16581 -0.3556,0.41396 0,0.19055 0.63528,2.40284 0.74127,2.58139 0.0243,0.0409 0.29717,-0.74016 0.60644,-1.73567 l 0.56231,-1.81001 0.37849,-0.024 0.37849,-0.024 0.63327,1.91296 0.63328,1.91297 0.51533,-1.55031 0.51532,-1.5503 -0.28357,-0.0423 c -0.15597,-0.0233 -0.28231,-0.0709 -0.28077,-0.10583 0.002,-0.0349 0.003,-0.1778 0.003,-0.3175 v -0.254 h 1.016 1.016 v 0.29633 c 0,0.22752 -0.0349,0.29633 -0.1505,0.29633 -0.22275,0 -0.50893,0.22835 -0.66961,0.53431 -0.078,0.14851 -0.45422,1.18443 -0.83604,2.30203 l -0.69423,2.032 -0.33496,0.0254 c -0.2021,0.0153 -0.36861,-0.0183 -0.41979,-0.0847 -0.0466,-0.0605 -0.3476,-0.87984 -0.66878,-1.82071 -0.32118,-0.94088 -0.60732,-1.66478 -0.63587,-1.60867 -0.0285,0.0561 -0.29477,0.87354 -0.5916,1.81652 l -0.5397,1.7145 h -0.35713 c -0.19642,0 -0.37435,-0.0286 -0.3954,-0.0635 z m -7.84573,-0.32435 c 0,-0.32291 0.354464,-0.90064 2.89329,-4.71571 0.64389,-0.96757 1.17071,-1.7772 1.17071,-1.79917 0,-0.022 -0.52387,-0.0399 -1.16417,-0.0398 -0.939809,1.1e-4 -1.220716,0.0287 -1.457616,0.14817 -0.368516,0.1859 -0.586971,0.5586 -0.652695,1.11353 -0.05012,0.42316 -0.05661,0.43151 -0.335645,0.43151 h -0.28454 l 7.36e-4,-0.74084 c 4.04e-4,-0.40746 0.02476,-0.94086 0.05413,-1.18533 l 0.05339,-0.4445 h 2.60326 2.60327 l 0.0399,0.27207 c 0.0429,0.29249 0.10451,0.19109 -2.86721,4.72118 l -1.195498,1.82242 1.220458,0.0234 c 1.06538,0.0205 1.2687,0.002 1.60016,-0.14452 0.2972,-0.13146 0.41557,-0.24695 0.54469,-0.53145 0.0907,-0.19992 0.1658,-0.44609 0.16683,-0.54706 0.003,-0.33156 0.0962,-0.45142 0.34958,-0.45142 h 0.24494 v 1.18533 1.18533 h -2.794 -2.793998 z m 19.727338,0.0127 c 0,-0.23569 0.0355,-0.29555 0.18838,-0.3175 0.35065,-0.0504 0.4017,-0.32995 0.40303,-2.20722 l 10e-4,-1.75684 h -0.34377 -0.34378 l 0.0263,-0.3175 0.0263,-0.3175 0.46567,-0.0449 c 0.25612,-0.0247 0.55328,-0.0937 0.66035,-0.15339 0.10708,-0.0596 0.29758,-0.0966 0.42334,-0.0821 0.17596,0.0203 0.23462,0.078 0.2546,0.25061 l 0.026,0.22423 0.50659,-0.26127 c 0.87562,-0.45159 1.78556,-0.34141 2.30799,0.27945 0.38881,0.46208 0.47784,0.96859 0.47784,2.71862 v 1.58819 l 0.3175,0.0263 c 0.3014,0.0249 0.3175,0.0413 0.3175,0.32262 v 0.29633 l -1.2065,0.0235 -1.2065,0.0235 v -0.2517 c 0,-0.19 0.0562,-0.27879 0.22925,-0.36216 0.30467,-0.14679 0.34503,-0.33454 0.35497,-1.65145 0.0102,-1.35383 -0.0956,-1.9204 -0.41909,-2.24389 -0.35949,-0.3595 -1.05628,-0.27696 -1.51238,0.17913 -0.16773,0.16773 -0.17675,0.26535 -0.17675,1.91242 v 1.73567 h 0.28727 c 0.31683,0 0.39477,0.10653 0.32914,0.44987 l -0.0435,0.22746 h -1.17546 -1.17546 z m 6.096,-0.006 c 0,-0.23701 0.0329,-0.29633 0.16453,-0.29633 0.0905,0 0.22384,-0.0847 0.29633,-0.18818 0.11341,-0.16191 0.1318,-0.61675 0.1318,-3.25966 v -3.07135 h -0.33866 c -0.32976,0 -0.33867,-0.008 -0.33867,-0.2925 0,-0.27316 0.021,-0.29561 0.3175,-0.33965 0.17462,-0.0259 0.4699,-0.088 0.65617,-0.13787 0.18626,-0.0499 0.46249,-0.11076 0.61383,-0.13527 l 0.27517,-0.0446 v 2.45286 2.45285 l 0.21439,-0.041 c 0.12952,-0.0248 0.48288,-0.33014 0.8926,-0.77143 0.63801,-0.68713 0.66545,-0.73203 0.46295,-0.75723 -0.18956,-0.0236 -0.21528,-0.0666 -0.21528,-0.35983 v -0.33304 h 1.05834 1.05833 v 0.29633 c 0,0.24228 -0.0316,0.29633 -0.17354,0.29633 -0.30117,0 -0.61005,0.22082 -1.33664,0.95555 l -0.70584,0.71375 0.64729,0.83752 c 1.01439,1.31251 1.30765,1.63685 1.53062,1.69281 0.16914,0.0425 0.20744,0.10509 0.20744,0.33922 v 0.28715 h -0.65849 c -0.45848,0 -0.71556,-0.04 -0.84635,-0.13157 -0.2039,-0.14282 -0.98405,-1.14282 -1.49914,-1.92159 -0.20008,-0.30252 -0.38156,-0.48684 -0.47934,-0.48684 -0.14376,0 -0.15734,0.08 -0.15734,0.92622 v 0.92623 l 0.3175,0.0263 c 0.30025,0.0249 0.31892,0.0435 0.34377,0.34378 l 0.0263,0.3175 h -1.23278 -1.23277 z m -11.430008,-7.366 c 0,-0.20696 0.0383,-0.29634 0.127,-0.29634 0.0699,0 0.2032,-0.0762 0.29634,-0.16933 0.16315,-0.16315 0.16933,-0.28222 0.16933,-3.25967 v -3.09018 h -0.29063 c -0.21627,0 -0.30438,-0.0433 -0.34437,-0.16933 -0.11002,-0.34664 0.0177,-0.48177 0.50247,-0.5318 0.25086,-0.0259 0.55255,-0.11027 0.67042,-0.1875 0.33688,-0.22073 0.59978,-0.14044 0.63185,0.19297 l 0.0267,0.278 0.25227,-0.21228 c 0.49226,-0.41421 1.46202,-0.49832 2.11991,-0.18386 0.41752,0.19956 0.86714,0.664 1.10397,1.14033 0.17003,0.34197 0.19548,0.51986 0.19558,1.3668 10e-5,0.82842 -0.028,1.03467 -0.1886,1.38257 -0.30073,0.6516 -0.66028,1.03956 -1.22492,1.32172 -0.63064,0.31513 -1.34068,0.35022 -1.90474,0.0941 l -0.35505,-0.16119 0.0115,1.05205 0.0115,1.05205 h 0.32239 c 0.31967,0 0.32238,0.003 0.32238,0.33866 v 0.33867 h -1.227654 -1.22767 z m 3.599688,-3.17631 c 0.39211,-0.38005 0.54898,-0.88901 0.54898,-1.78113 0,-1.14256 -0.32445,-1.8133 -0.98212,-2.03035 -0.31976,-0.10553 -0.80786,-0.002 -1.11099,0.23614 -0.18252,0.14326 -0.18838,0.19767 -0.19713,1.83012 -0.005,0.92536 0.0225,1.71356 0.0611,1.75155 0.43382,0.42728 1.23589,0.42426 1.68014,-0.006 z m -18.755018,0.85413 c -0.256116,-0.0847 -0.532341,-0.18202 -0.613833,-0.21617 -0.113878,-0.0477 -0.148167,-0.0208 -0.148167,0.11629 0,0.15168 -0.05071,0.17839 -0.338666,0.17839 h -0.338667 l -5.08e-4,-0.52917 c -2.79e-4,-0.29104 -0.02498,-0.84349 -0.05488,-1.22766 l -0.05437,-0.6985 h 0.349603 c 0.312379,0 0.35512,0.0248 0.401418,0.23283 0.109904,0.49385 0.14388,0.58067 0.342044,0.87406 0.42338,0.62684 1.377968,0.91171 2.11362,0.63076 0.874107,-0.33383 0.973417,-1.42494 0.184002,-2.02162 -0.15139,-0.11443 -0.716582,-0.41556 -1.255981,-0.66918 -1.523734,-0.71646 -2.019241,-1.27686 -2.023082,-2.28807 -0.0033,-0.85662 0.364887,-1.43936 1.141141,-1.80633 0.599017,-0.28319 1.657627,-0.28209 2.3495,0.002 0.463004,0.1904 0.486833,0.19238 0.486833,0.0403 0,-0.13008 0.06312,-0.15988 0.338667,-0.15988 h 0.338667 v 1.22767 1.22766 h -0.294721 c -0.253703,0 -0.301245,-0.0324 -0.341603,-0.23283 -0.222953,-1.10724 -0.739933,-1.62983 -1.612341,-1.62983 -0.777927,0 -1.222669,0.39874 -1.222669,1.09622 0,0.55323 0.402163,0.91845 1.72516,1.56667 1.752716,0.85876 2.124143,1.27524 2.121833,2.37917 -10e-4,0.49808 -0.0401,0.66333 -0.23547,0.99673 -0.41384,0.70617 -1.19143,1.0761 -2.246334,1.06865 -0.385371,-0.003 -0.83319,-0.0666 -1.111189,-0.15862 z m 5.99,0.0424 c -1.09641,-0.39127 -1.7299,-1.49288 -1.65452,-2.87713 0.0453,-0.83156 0.26827,-1.38153 0.76974,-1.89856 0.47496,-0.48969 0.91889,-0.70524 1.55816,-0.75656 0.78886,-0.0633 1.25172,0.0968 1.76564,0.61069 0.45614,0.45614 0.65415,0.93337 0.66636,1.60605 l 0.006,0.34597 -1.74109,0.0228 -1.7411,0.0228 0.0578,0.49009 c 0.0682,0.57807 0.31538,1.16851 0.59774,1.42757 0.57265,0.52541 1.8071,0.33027 2.3604,-0.37313 0.16626,-0.21137 0.17665,-0.21337 0.34005,-0.0655 0.23677,0.21427 0.21314,0.33035 -0.14895,0.73194 -0.47496,0.52677 -1.18905,0.83444 -1.92617,0.8299 -0.32596,-0.002 -0.73561,-0.0547 -0.91033,-0.11701 z m 1.85369,-3.7527 c -0.023,-0.0815 -0.066,-0.26922 -0.0957,-0.41716 -0.18828,-0.93749 -1.48408,-0.9405 -1.90901,-0.004 -0.26512,0.58404 -0.28869,0.56975 0.9401,0.56975 1.01314,0 1.10286,-0.0125 1.06466,-0.14816 z m 3.45931,3.67383 c -1.54611,-0.72318 -2.01592,-3.04712 -0.90935,-4.49809 0.70804,-0.92839 1.99279,-1.24735 2.98909,-0.74208 0.74467,0.37767 1.13744,1.0231 1.1979,1.9685 l 0.0244,0.381 -1.76619,0.0229 -1.76618,0.0229 0.0562,0.40042 c 0.19932,1.42151 0.9069,2.04484 1.99951,1.76142 0.38791,-0.10062 1.09571,-0.57546 1.09571,-0.73507 0,-0.0437 0.0952,-0.0171 0.21167,0.0592 0.11641,0.0763 0.21166,0.19135 0.21166,0.25571 0,0.22822 -0.64174,0.82448 -1.143,1.06199 -0.67934,0.32191 -1.56571,0.33849 -2.20133,0.0412 z m 1.99312,-3.84317 c -0.0706,-0.38353 -0.18411,-0.60588 -0.4166,-0.81627 -0.1383,-0.12517 -0.26432,-0.14962 -0.60327,-0.11705 -0.48254,0.0464 -0.79476,0.27445 -0.98416,0.71894 -0.22693,0.53258 -0.22819,0.53188 0.97321,0.53188 h 1.0893 z m 13.122178,3.89581 c -0.22909,-0.0809 -0.55287,-0.30784 -0.81959,-0.57455 -0.36438,-0.36439 -0.47288,-0.54621 -0.62524,-1.04784 -0.69949,-2.30292 1.06297,-4.42963 3.15222,-3.80368 0.77084,0.23095 1.40937,1.13089 1.44696,2.03934 l 0.0183,0.44342 -1.7145,0.0229 -1.7145,0.0229 v 0.32155 c 0,0.76193 0.43844,1.61901 0.92383,1.80593 0.6037,0.23248 1.56305,-0.0218 1.98815,-0.52703 0.20183,-0.23987 0.21089,-0.24203 0.39373,-0.094 0.13505,0.10936 0.17111,0.20204 0.12955,0.33298 -0.0911,0.28708 -0.85802,0.92244 -1.29183,1.07026 -0.49566,0.16889 -1.39038,0.16308 -1.88713,-0.0122 z m 1.91473,-3.72647 c -0.023,-0.0815 -0.066,-0.26922 -0.0957,-0.41716 -0.0827,-0.4117 -0.42405,-0.70468 -0.82104,-0.70468 -0.59595,0 -1.0508,0.39227 -1.20265,1.03717 l -0.0548,0.23283 h 1.10798 c 1.01467,0 1.10447,-0.0125 1.06627,-0.14816 z m 7.58213,3.65419 c -0.53279,-0.2655 -0.89258,-0.68246 -1.1258,-1.30469 -0.14346,-0.38275 -0.16954,-0.61685 -0.14645,-1.31468 0.0251,-0.75791 0.0579,-0.90958 0.30622,-1.4134 0.29789,-0.60449 0.67288,-0.96477 1.30073,-1.24967 0.44564,-0.20221 1.30018,-0.2261 1.72586,-0.0482 l 0.29362,0.12268 v -0.88468 -0.88468 h -0.33867 -0.33867 v -0.33867 -0.33866 l 0.35984,-0.004 c 0.19791,-0.002 0.51223,-0.0637 0.6985,-0.13711 0.18626,-0.0734 0.45296,-0.13837 0.59266,-0.14445 l 0.254,-0.0111 0.0221,3.65678 0.0221,3.65678 0.3166,0.0262 c 0.30856,0.0256 0.31661,0.0348 0.31661,0.36489 v 0.33867 l -0.86549,0.0241 c -0.85529,0.0238 -0.86609,0.0217 -0.91727,-0.18224 l -0.0518,-0.20634 -0.46716,0.24574 c -0.63154,0.33221 -1.32505,0.34158 -1.95747,0.0264 z m 1.73483,-0.633 c 0.13109,-0.0497 0.32407,-0.17061 0.42885,-0.26876 0.18539,-0.17366 0.1905,-0.22437 0.1905,-1.89016 v -1.71172 l -0.34038,-0.13619 c -0.61982,-0.248 -1.1737,-0.11016 -1.54298,0.38399 -0.30014,0.40162 -0.41386,0.82012 -0.41665,1.5334 -0.004,1.05351 0.28864,1.7432 0.86236,2.03145 0.34192,0.17179 0.49022,0.1823 0.8183,0.058 z m 4.74668,0.73151 c -0.69523,-0.2481 -1.32164,-0.93149 -1.54583,-1.68642 -0.18703,-0.6298 -0.16293,-1.55951 0.0556,-2.14349 0.36989,-0.98861 1.35008,-1.72196 2.30157,-1.72196 0.70806,0 1.11215,0.14514 1.58322,0.56868 0.47187,0.42425 0.68723,0.90161 0.70502,1.56269 l 0.0121,0.45096 -1.7411,0.0228 -1.7411,0.0228 0.0591,0.48516 c 0.11741,0.96476 0.49631,1.52508 1.15414,1.70672 0.56176,0.15511 1.41156,-0.15005 1.80274,-0.64735 0.16626,-0.21137 0.17665,-0.21337 0.34005,-0.0655 0.0927,0.0839 0.16855,0.21115 0.16855,0.28279 0,0.23336 -0.87182,0.99264 -1.31196,1.14261 -0.49128,0.1674 -1.40054,0.17699 -1.84204,0.0194 z m 1.88353,-3.71037 c -0.001,-0.27616 -0.20292,-0.78259 -0.38365,-0.96331 -0.23736,-0.23736 -0.7566,-0.27206 -1.13591,-0.0759 -0.26283,0.13592 -0.54954,0.54359 -0.64155,0.91222 l -0.0581,0.23283 h 1.10985 c 0.83168,0 1.10972,-0.0265 1.10937,-0.10583 z m -22.85953,3.44671 c 0,-0.23915 0.0373,-0.29901 0.2139,-0.34333 0.11764,-0.0295 0.25099,-0.123 0.29633,-0.20772 0.0463,-0.0865 0.0824,-0.97243 0.0824,-2.02226 v -1.86823 h -0.42334 -0.42333 v -0.33867 -0.33867 h 0.41105 0.41106 l 0.0495,-0.58997 c 0.1131,-1.34907 0.79992,-2.11291 1.90398,-2.1175 0.54877,-0.002 0.94554,0.15474 1.19618,0.47338 0.19801,0.25172 0.19664,0.60932 -0.003,0.85019 -0.12925,0.15574 -0.62457,0.1437 -0.78741,-0.0191 -0.12842,-0.12842 -0.14928,-0.1858 -0.16711,-0.45962 -0.005,-0.0833 -0.11579,-0.13594 -0.32067,-0.15298 -0.45942,-0.0382 -0.58981,0.20835 -0.64245,1.21473 l -0.0419,0.80091 h 0.68887 0.68887 v 0.33867 0.33867 h -0.67734 -0.67733 v 2.032 2.032 h 0.381 c 0.37898,0 0.381,0.002 0.381,0.29633 v 0.29633 l -1.03717,0.01 c -0.57044,0.005 -1.14194,0.0221 -1.27,0.0373 -0.214,0.0254 -0.23283,0.004 -0.23283,-0.26204 z m 8.9535,0.24264 c -0.10452,-0.0282 -0.14817,-0.1254 -0.14817,-0.33006 0,-0.25378 0.0268,-0.29012 0.21377,-0.29012 0.15155,0 0.23779,-0.0632 0.29633,-0.21718 0.0454,-0.11945 0.0826,-0.99575 0.0826,-1.94733 v -1.73003 h -0.33867 c -0.33658,0 -0.33866,-0.002 -0.33866,-0.3266 v -0.32661 l 0.48825,-0.051 c 0.26854,-0.0281 0.61144,-0.11249 0.76201,-0.1876 0.42947,-0.21425 0.56341,-0.14372 0.6124,0.32246 l 0.0423,0.40281 0.24354,-0.25913 c 0.50562,-0.53796 1.22798,-0.73124 1.74115,-0.46587 0.68636,0.35493 0.36007,1.44462 -0.38936,1.30029 -0.0846,-0.0163 -0.23044,-0.15154 -0.3242,-0.30057 -0.0938,-0.14903 -0.21798,-0.27243 -0.27606,-0.27422 -0.16377,-0.005 -0.75332,0.56431 -0.85233,0.82315 -0.0488,0.12756 -0.10448,0.9082 -0.12376,1.73475 l -0.035,1.50284 h 0.33064 c 0.33031,0 0.33062,3.2e-4 0.30437,0.3175 l -0.0263,0.3175 -1.05833,0.0126 c -0.58208,0.007 -1.12501,-0.005 -1.2065,-0.0274 z m -22.203948,-10.24473 -1.10077,-0.0321 -0.32198,-0.62547 c -0.32026,-0.62213 -0.32338,-0.62506 -0.58563,-0.54985 -0.34006,0.0975 -0.90989,0.47452 -0.92148,0.60964 -0.005,0.0575 -0.002,0.21359 0.007,0.34676 l 0.0163,0.24214 -2.145188,-0.0564 c -2.171073,-0.0571 -2.610857,-0.0925 -2.610857,-0.20988 0,-0.0797 1.692709,-0.17562 3.100965,-0.17562 0.91429,0 1.03609,-0.0164 0.99116,-0.13348 -0.0282,-0.0734 0.0167,-0.3332 0.0996,-0.57729 0.18735,-0.55116 0.1274,-0.93594 -0.21242,-1.36356 -0.37474,-0.47154 -0.40026,-0.78729 -0.13626,-1.68552 0.12444,-0.4234 0.31925,-1.08481 0.43291,-1.46981 0.24848,-0.84164 0.41548,-1.78039 0.59668,-3.35398 0.0744,-0.64642 0.17135,-1.27005 0.21537,-1.38584 0.044,-0.11578 0.31975,-0.46319 0.61272,-0.77202 1.02271,-1.07806 1.49314,-1.87773 1.67117,-2.8408 0.0956,-0.5173 0.0897,-0.59928 -0.18837,-2.58903 -0.33908,-2.42658 -0.20037,-3.86178 0.50915,-5.2679 0.361,-0.71544 0.29515,-0.74929 -0.29585,-0.15208 -0.75624,0.76419 -1.05172,1.67527 -1.25656,3.87451 -0.19513,2.09493 -0.28099,2.6725 -0.55444,3.7296 -0.4041,1.56213 -1.16096,2.99134 -2.1492,4.05842 -0.54063,0.58376 -1.228621,1.12345 -1.432169,1.12345 -0.266418,0 -0.228661,-0.18786 0.183164,-0.91131 0.471599,-0.82847 0.965935,-2.14508 0.927755,-2.47097 -0.0181,-0.1542 -0.15247,0.0901 -0.480956,0.8744 -0.76107,1.81702 -1.587243,2.85266 -2.689632,3.37156 -1.00235,0.47181 -1.412562,0.26247 -0.495151,-0.25269 1.330437,-0.74708 1.833377,-1.34694 2.755451,-3.2864 0.329887,-0.69387 0.680178,-1.34732 0.778428,-1.45209 0.1969,-0.20998 0.44201,-0.2484 0.54293,-0.0851 0.18865,0.30523 -0.0826,1.82523 -0.45712,2.5616 l -0.12919,0.254 0.18935,-0.16892 c 0.28352,-0.25293 1.07037,-1.46931 1.34819,-2.08413 0.60428,-1.33732 0.83925,-2.41785 1.11271,-5.11676 0.25216,-2.48878 0.552,-3.43622 1.36744,-4.32087 0.1805,-0.19581 0.53388,-0.46372 0.78531,-0.59536 0.37913,-0.1985 0.49776,-0.22504 0.69532,-0.15557 0.13101,0.0461 0.25014,0.14577 0.26473,0.22154 0.0146,0.0758 -0.18317,0.57028 -0.43948,1.09891 -0.76548,1.57881 -0.8931,2.81711 -0.51789,5.02516 0.19866,1.16911 0.25626,2.5549 0.12869,3.09614 -0.20923,0.88771 -0.71709,1.71717 -1.65846,2.70868 -0.68153,0.71783 -0.61452,0.51639 -0.88495,2.66036 -0.19529,1.54825 -0.40453,2.50585 -0.81185,3.71536 -0.36443,1.08214 -0.36635,1.3741 -0.0123,1.87635 0.23822,0.33798 0.27381,0.45773 0.27516,0.92596 l 0.002,0.53777 0.21167,-0.11856 c 0.11641,-0.0652 0.3151,-0.15548 0.44153,-0.20059 0.22565,-0.0805 0.22761,-0.0874 0.1073,-0.37533 -0.21239,-0.50832 -0.23835,-1.14816 -0.0865,-2.13099 0.35367,-2.28872 0.67328,-3.40829 1.14242,-4.00179 0.17581,-0.22242 0.52748,-0.72637 0.78148,-1.11988 0.254,-0.39351 0.72587,-1.00123 1.04861,-1.35048 0.32274,-0.34925 0.83446,-0.93564 1.13714,-1.30309 0.30268,-0.36745 0.98699,-1.0342 1.52069,-1.48167 1.7208,-1.44277 2.29398,-2.2946 3.22502,-4.79291 0.72808,-1.95366 1.07076,-2.49766 1.57337,-2.49766 0.583368,0 0.699388,0.76013 0.29385,1.92519 -0.39522,1.1354 -1.33926,2.50917 -2.69791,3.92599 l -0.78398,0.81754 0.0985,0.4267 c 0.18572,0.80457 -0.12771,1.71849 -0.98965,2.88572 -0.26074,0.35309 -0.46188,0.71497 -0.46188,0.83098 0,0.14879 0.31017,0.5267 1.12395,1.36939 1.51295,1.5667 2.28177,2.53309 2.7098,3.4062 0.3048,0.62172 0.4065,0.75263 0.69271,0.89164 0.43415,0.21086 0.697408,0.63769 0.568198,0.92126 -0.0865,0.1898 -0.0652,0.21441 0.34879,0.40325 0.40668,0.1855 0.44293,0.1895 0.46725,0.0515 0.0313,-0.17758 -0.462,-2.05586 -0.62096,-2.36434 -0.0608,-0.11804 -0.463238,-0.59429 -0.894248,-1.05833 -1.49931,-1.6142 -1.78296,-2.00635 -1.93243,-2.67158 -0.17468,-0.77743 0.12778,-1.55405 1.03885,-2.66746 1.03078,-1.2597 1.832088,-2.52833 1.832088,-2.90057 0,-0.19784 -0.10337,-0.24105 -0.970568,-0.40575 -0.94203,-0.17892 -1.14218,-0.2991 -1.1448,-0.68742 -0.003,-0.47839 1.05381,-0.68204 2.036498,-0.39236 0.25293,0.0746 1.05042,0.40256 1.7722,0.7289 2.24131,1.01336 3.52131,1.34986 5.715,1.50244 0.94592,0.0658 4.44319,0.096 4.44479,0.0384 1.1e-4,-0.004 -0.18288,-0.31228 -0.40665,-0.6846 -0.71854,-1.19554 -1.08529,-2.77427 -0.73452,-3.16187 0.2106,-0.2327 0.47715,-0.20919 0.74,0.0653 0.32075,0.33494 0.52586,0.85903 0.77598,1.98279 0.44046,1.97885 0.6269,2.28213 1.76057,2.86387 2.18724,1.12238 4.27051,2.35006 4.67656,2.75592 0.64289,0.64261 1.39322,1.60829 1.58304,2.03739 0.253,0.57195 0.55728,1.85468 0.62552,2.63691 0.0571,0.65477 0.0784,0.71149 0.38401,1.02326 0.3857,0.39347 0.47947,0.69711 0.33698,1.09115 -0.0577,0.15944 -0.0918,0.30092 -0.0759,0.31441 0.0966,0.0819 1.00241,0.37258 1.00152,0.32145 -6e-4,-0.0343 -0.0768,-0.30383 -0.16934,-0.59902 -0.1052,-0.33562 -0.16824,-0.7746 -0.16824,-1.17162 0,-0.54427 -0.0435,-0.73356 -0.30444,-1.32596 -0.50105,-1.13731 -0.67818,-1.66084 -0.92218,-2.72556 -0.31384,-1.36952 -0.61151,-1.97872 -1.25689,-2.57228 -1.3081,-1.20307 -1.72412,-1.62632 -2.29591,-2.33587 -0.33773,-0.4191 -0.68509,-0.88583 -0.77191,-1.03717 -0.0878,-0.15305 -0.22676,-0.27517 -0.31313,-0.27517 -0.41905,0 -0.90887,-0.49258 -0.90887,-0.914 0,-0.18716 0.25243,-0.44066 0.4388,-0.44066 0.15206,0 0.49291,0.30065 0.70114,0.61844 0.18953,0.28926 0.35523,0.20927 0.70561,-0.34062 0.47638,-0.74764 0.62807,-1.36668 0.70088,-2.86016 0.0719,-1.47471 0.0502,-1.38664 0.87396,-3.55325 0.65089,-1.712 0.90121,-2.19535 1.46431,-2.8275 l 0.47928,-0.53805 0.006,-0.64693 c 0.007,-0.74277 0.20998,-1.24137 0.59053,-1.45127 0.21639,-0.11935 0.24024,-0.11484 0.39614,0.075 0.20362,0.2479 0.16302,0.5605 -0.18092,1.39319 -0.19375,0.46907 -0.22298,0.62189 -0.15375,0.80396 0.14495,0.38124 0.49747,0.77806 0.95166,1.07125 0.51182,0.33039 0.79326,0.62307 1.42568,1.48264 0.59477,0.8084 0.65984,0.93782 0.65984,1.31234 0,0.45929 0.1253,0.61536 0.60949,0.75915 0.74467,0.22114 0.87406,0.1879 1.3897,-0.35699 0.54921,-0.58035 0.55058,-0.40662 -0.0229,-2.89983 -0.24522,-1.06608 -0.40493,-1.99595 -0.45081,-2.62467 -0.0843,-1.15568 -0.24995,-1.75123 -0.65039,-2.33865 -0.16259,-0.23851 -0.31592,-0.58498 -0.34073,-0.76994 l -0.0451,-0.3363 -0.195,0.195 c -0.30681,0.30682 -0.60336,0.34362 -0.85738,0.10641 -0.18828,-0.17581 -0.2107,-0.25489 -0.17977,-0.63424 l 0.0353,-0.43338 -1.1498,-0.0584 c -1.71394,-0.087 -2.93475,0.0945 -4.31256,0.64099 -1.1015,0.43694 -2.00635,1.06331 -3.52439,2.43972 -0.83186,0.75426 -1.74642,1.4502 -2.21363,1.68449 -0.19303,0.0968 -0.76453,0.29707 -1.27,0.44506 -0.50547,0.14798 -1.35719,0.45633 -1.8927,0.68521 -1.47595,0.63083 -1.98002,0.7519 -3.34434,0.8033 -1.56224,0.0589 -2.69352,-0.1027 -5.03394,-0.71891 l -1.824058,-0.48026 -1.35466,0.004 c -1.54363,0.005 -1.90108,0.0861 -3.90738,0.88853 -0.9177,0.36706 -1.22045,0.44756 -1.93462,0.5144 -1.94146,0.18173 -2.74693,0.48754 -3.64224,1.38285 -0.66661,0.66661 -0.99149,1.32674 -1.52168,3.0919 -0.45162,1.5036 -0.75047,2.17926 -1.235055,2.7923 l -0.341788,0.4324 0.523322,-0.26417 c 0.378991,-0.19132 0.548881,-0.23862 0.615991,-0.17151 0.13137,0.13137 -0.0828,0.49449 -0.79545,1.34873 -1.065048,1.27664 -1.435107,2.13899 -1.645127,3.83363 -0.173284,1.39822 -0.298419,1.88236 -0.496321,1.92025 -0.122023,0.0234 -0.144687,-0.007 -0.103246,-0.13735 0.08632,-0.27197 0.215821,-1.54061 0.217864,-2.13428 0.004,-1.16141 0.442828,-2.27548 1.342023,-3.40702 l 0.505405,-0.636 -0.352519,0.10455 c -0.555004,0.1646 -1.135889,0.2048 -1.293541,0.0895 -0.169479,-0.12392 -0.138471,-0.15574 0.61945,-0.63562 0.891439,-0.56442 1.337835,-1.35026 1.925382,-3.38943 0.4397,-1.52604 0.94639,-2.5137 1.65114,-3.21845 0.85349,-0.85349 2.17647,-1.43723 3.26101,-1.43885 0.78681,-0.001 1.47131,-0.16827 2.64384,-0.64537 1.43323,-0.58319 2.51017,-0.86322 3.57375,-0.92926 1.01216,-0.0628 1.92321,0.0795 3.805858,0.59456 2.01879,0.55233 2.79268,0.67196 4.37326,0.67602 1.5685,0.004 1.8987,-0.0642 3.43221,-0.70923 0.54734,-0.23022 1.38228,-0.53359 1.8554,-0.67415 1.5311,-0.45485 1.85817,-0.64912 3.43306,-2.03911 1.86661,-1.64748 2.4016,-2.02316 3.61852,-2.541 0.90013,-0.38304 1.7582,-0.58287 2.98548,-0.69526 l 1.10066,-0.1008 -0.55033,-0.11126 c -0.81715,-0.1652 -2.54238,-0.15863 -3.25967,0.0124 -1.25286,0.29877 -1.78636,0.55479 -3.41414,1.6384 -0.66704,0.44405 -1.42383,0.89313 -1.68174,0.99795 l -0.46894,0.19059 0.36941,0.0595 c 0.91489,0.14744 0.92994,0.52137 0.0321,0.79867 -0.71788,0.22173 -0.97007,0.3544 -1.7794,0.93604 -1.05665,0.75938 -1.33602,0.8786 -2.07434,0.8852 -0.49315,0.004 -0.635,-0.021 -0.635,-0.11389 0,-0.0784 0.17804,-0.15589 0.51742,-0.22512 0.64013,-0.13058 1.0892,-0.35584 1.80564,-0.90577 0.30559,-0.23456 0.81886,-0.55285 1.14062,-0.70731 0.32175,-0.15446 0.5313,-0.29623 0.46566,-0.31504 -0.0656,-0.0188 -0.32889,-0.0813 -0.585,-0.13888 -0.25612,-0.0576 -0.55017,-0.1577 -0.65345,-0.22249 -0.27607,-0.17322 -0.15792,-0.37148 0.22138,-0.37148 0.826,0 1.68111,-0.36929 3.07227,-1.32679 1.04465,-0.71901 2.37327,-1.37718 3.24413,-1.60708 0.46323,-0.1223 0.88852,-0.15544 1.94733,-0.15175 1.19494,0.004 1.45949,0.0321 2.24367,0.23685 0.48895,0.12768 1.09304,0.32532 1.34243,0.43919 0.44903,0.20505 0.45561,0.2055 0.67734,0.0466 0.12314,-0.0883 0.31915,-0.26348 0.43556,-0.3894 0.11642,-0.12591 0.37093,-0.33919 0.56559,-0.47394 0.64374,-0.44563 0.8182,-0.28191 0.549,0.51522 -0.20108,0.59543 -0.15789,0.59556 0.51672,0.002 0.72889,-0.64181 0.86625,-0.23755 0.30987,0.91195 l -0.34483,0.71241 0.21387,0.30977 c 0.3281,0.47522 0.53457,1.00478 0.68755,1.76344 0.15589,0.77311 0.14437,1.171 -0.0339,1.171 -0.0652,0 -0.16811,-0.14335 -0.22876,-0.31854 -0.0607,-0.1752 -0.17396,-0.4038 -0.25178,-0.508 -0.12392,-0.16594 -0.13393,-0.16844 -0.0807,-0.0201 0.0335,0.0931 0.0927,0.55033 0.13168,1.016 0.0667,0.79639 0.19941,1.48964 0.71336,3.72534 0.3225,1.40285 0.30752,1.53484 -0.24618,2.16972 -0.25399,0.29124 -0.54927,0.57807 -0.65616,0.6374 -0.46608,0.25869 -1.68797,0.0303 -2.11329,-0.39503 -0.18575,-0.18575 -0.24007,-0.31879 -0.24007,-0.58797 0,-0.19134 -0.0572,-0.4705 -0.12719,-0.62034 -0.2493,-0.534 -1.19194,-1.62469 -1.72757,-1.9989 -0.46553,-0.32524 -0.92819,-0.82421 -1.05381,-1.13654 -0.0528,-0.13138 -0.57355,0.4605 -0.85656,0.97363 -0.12031,0.21816 -0.45069,0.99921 -0.73416,1.73567 -0.95134,2.47159 -0.91561,2.33936 -0.91759,3.39576 -0.003,1.73285 -0.45145,3.12508 -1.22541,3.80635 l -0.37318,0.32849 0.71436,0.85654 c 0.39289,0.47111 1.1036,1.2116 1.57935,1.64555 0.47575,0.43395 1.00768,0.94008 1.18207,1.12473 0.45612,0.48297 0.8041,1.25289 1.0005,2.21361 0.21445,1.04902 0.4311,1.71426 0.90013,2.76402 0.346,0.77443 0.36906,0.87305 0.36906,1.57859 0,0.53867 0.0524,0.9175 0.18428,1.33297 0.14546,0.45812 0.18316,0.77842 0.17893,1.52021 l -0.005,0.9398 1.57444,0.0586 c 0.86594,0.0322 1.59187,0.0761 1.61318,0.0974 0.11877,0.11877 -0.22573,0.17154 -1.4567,0.22314 -1.48283,0.0622 -31.987698,0.14977 -33.796548,0.0971 z m 30.508898,-0.85295 c -0.69925,-0.52929 -0.91778,-0.86054 -0.91778,-1.39118 0,-0.35984 0.0385,-0.45218 0.29633,-0.70997 0.16298,-0.16298 0.29633,-0.35042 0.29633,-0.41652 0,-0.0661 -0.15236,-0.24263 -0.33858,-0.39228 -0.37295,-0.29971 -0.50685,-0.63616 -0.50761,-1.27552 -5.7e-4,-0.47971 -0.19324,-1.439 -0.43816,-2.18162 -0.12032,-0.36483 -0.29795,-0.67414 -0.53482,-0.93133 -0.19507,-0.2118 -0.51178,-0.60053 -0.7038,-0.86385 -0.38506,-0.52806 -0.62212,-0.68802 -3.03456,-2.04767 -1.44147,-0.81241 -1.63913,-0.90024 -1.63913,-0.72829 0,0.0493 -0.223,0.57317 -0.49556,1.16417 -0.27255,0.59101 -0.67731,1.58837 -0.89947,2.21635 -0.22215,0.62799 -0.56906,1.42809 -0.7709,1.778 -0.65186,1.13005 -1.1294,3.27345 -0.89055,3.99717 0.0542,0.16419 0.30235,0.53389 0.55147,0.82157 0.24913,0.28767 0.54292,0.69262 0.65287,0.89987 l 0.19991,0.37683 3.64128,0.023 c 2.0027,0.0126 4.1864,0.0321 4.85266,0.0432 l 1.21139,0.0202 z m -21.71701,-0.006 c -0.509098,-0.4025 -0.843728,-0.83492 -1.009508,-1.30451 -0.15923,-0.451 -0.10319,-0.68689 0.21993,-0.92579 0.13904,-0.10279 0.2528,-0.23738 0.2528,-0.29908 0,-0.0617 -0.1719,-0.1957 -0.38202,-0.29778 -0.33948,-0.16493 -0.41824,-0.26143 -0.7074,-0.86673 -0.44396,-0.92937 -1.12482,-1.80493 -2.57068,-3.3058 -0.6729,-0.6985 -1.26765,-1.35322 -1.32167,-1.45493 -0.17286,-0.32546 -0.11767,-0.81066 0.13461,-1.18332 0.89798,-1.32649 1.07379,-1.61939 1.17609,-1.9593 0.11307,-0.37571 0.15909,-1.11745 0.0693,-1.11745 -0.14905,0 -1.95156,1.66239 -2.50971,2.31461 -0.36511,0.42665 -0.91018,1.05665 -1.21127,1.40001 -0.30109,0.34337 -0.64979,0.80057 -0.77488,1.01601 -0.12509,0.21543 -0.39468,0.61052 -0.59909,0.87796 -0.20441,0.26745 -0.44455,0.65105 -0.53364,0.85247 -0.17668,0.39942 -0.61209,2.46626 -0.76186,3.61649 -0.11186,0.85911 -0.0391,1.14141 0.57937,2.24696 l 0.39583,0.70759 4.98177,0.003 4.981768,0.003 z m 9.78217,-0.16108 c 0.12176,-0.52377 0.0788,-0.63647 -0.4671,-1.22582 -0.34399,-0.37134 -0.36918,-0.43074 -0.36918,-0.87055 0,-0.25961 0.0603,-0.61366 0.1339,-0.78679 0.59958,-1.40957 1.04924,-2.84399 1.05415,-3.36278 0.005,-0.52145 0.15183,-1.29832 0.4963,-2.62467 0.14513,-0.5588 0.35173,-1.49719 0.45913,-2.08532 l 0.19526,-1.06931 -2.2912,-0.0424 c -3.38722,-0.0627 -4.6024,-0.32501 -7.29884,-1.57545 -1.48982,-0.69088 -2.009738,-0.85875 -2.648898,-0.85526 -0.59771,0.003 -0.42659,0.11673 0.35827,0.23756 1.061818,0.16347 1.420358,0.47543 1.297708,1.12917 -0.0847,0.45161 -0.986998,1.90835 -1.756258,2.8355 -1.07267,1.29285 -1.30477,1.99009 -0.92361,2.77463 0.092,0.18933 0.66634,0.89668 1.27637,1.5719 0.61002,0.67522 1.199278,1.36102 1.309458,1.524 0.11019,0.16298 0.32436,0.77258 0.47593,1.35467 0.22707,0.87198 0.27435,1.20741 0.26852,1.905 -0.004,0.48378 -0.0593,1.00996 -0.12897,1.22766 l -0.12189,0.381 h 4.28901 4.28902 z m 2.12706,0.42025 c 0,-0.0772 -0.0835,-0.19319 -0.81693,-1.1351 -0.36327,-0.46653 -0.62339,-1.09107 -0.62108,-1.49122 0.002,-0.33167 0.30605,-1.72666 0.54852,-2.51587 0.11445,-0.37254 0.36051,-0.92363 0.54681,-1.22465 0.1863,-0.30102 0.44066,-0.83442 0.56524,-1.18533 0.43218,-1.21738 0.88081,-2.26347 1.32929,-3.09957 l 0.45081,-0.84045 -0.42983,-0.23674 c -0.23641,-0.1302 -0.56747,-0.37094 -0.73568,-0.53497 -0.25883,-0.25239 -0.35528,-0.29409 -0.62736,-0.27127 l -0.32152,0.027 -0.19723,1.18533 c -0.10848,0.65193 -0.33654,1.73778 -0.50682,2.413 -0.17636,0.69936 -0.33799,1.59202 -0.37559,2.07433 -0.0668,0.85662 -0.32729,1.7528 -1.00658,3.46281 -0.33939,0.85437 -0.33262,1.04681 0.0496,1.41008 0.46501,0.44196 0.65125,0.92249 0.58369,1.50607 l -0.0555,0.47904 0.81005,0.0284 c 0.46764,0.0164 0.81005,-0.005 0.81005,-0.0509 z m 10.9022,-0.83091 0.0225,-0.50128 -0.57287,-0.19434 c -0.94858,-0.32178 -0.95387,-0.32218 -0.95387,-0.0725 0,0.12574 0.11689,0.35203 0.27516,0.53272 0.30407,0.34712 0.98165,0.81075 1.11883,0.76555 0.0482,-0.0159 0.0978,-0.25447 0.11021,-0.53017 z m -22.04788,0.0702 c 0.11797,-0.71374 0.10287,-0.7445 -0.5055,-1.02919 -0.307908,-0.14409 -0.612708,-0.26198 -0.677328,-0.26198 -0.17202,0 -0.14339,0.31912 0.0578,0.64472 0.16321,0.26408 0.902368,0.96217 1.020078,0.9634 0.0288,3e-4 0.076,-0.14233 0.1049,-0.31695 z m 11.43857,-13.03867 c -0.35802,-1.77309 -0.70056,-2.78449 -0.92789,-2.73973 -0.25235,0.0497 0.14849,1.54614 0.65449,2.4434 0.2674,0.47416 0.32105,0.53231 0.2734,0.29633 z m 4.19626,-0.61127 c -0.2217,-0.31136 -0.34049,-0.38998 -0.34049,-0.22537 0,0.10749 0.374,0.47681 0.48285,0.47681 0.0202,0 -0.0439,-0.11315 -0.14236,-0.25144 z M 98.583752,149.2606 c 0.83383,-1.22323 1.339,-2.92521 0.8397,-2.82905 -0.20841,0.0401 -0.48432,0.51139 -0.82383,1.40708 -0.25208,0.66505 -0.61918,1.59404 -1.10984,2.80865 -0.0694,0.1719 0.67338,-0.76969 1.09397,-1.38668 z m 23.123968,-9.40832 0.0556,-0.254 -0.12469,0.21167 c -0.0686,0.11641 -0.12362,0.30692 -0.12232,0.42333 0.002,0.19056 0.009,0.19478 0.0691,0.0423 0.0367,-0.0931 0.0917,-0.28364 0.12232,-0.42334 z m 4.83969,-1.86676 c -0.22982,-0.51967 -0.44253,-0.84472 -0.71231,-1.08853 -0.17731,-0.16023 -0.17847,-0.15978 -0.17847,0.0691 0,0.12669 0.0425,0.31357 0.0944,0.41529 0.0814,0.15945 0.91686,1.07393 0.98118,1.07393 0.0126,0 -0.0705,-0.21139 -0.18476,-0.46976 z m -1.85874,-1.28371 c 0.16812,-0.16812 0.30369,-0.47561 0.49381,-1.12006 l 0.13587,-0.46053 -0.27045,0.24887 c -0.4545,0.41821 -0.57018,0.5751 -0.66063,0.89596 -0.0865,0.30698 -0.0455,0.58056 0.087,0.58056 0.0383,0 0.13473,-0.0652 0.21437,-0.1448 z m 1.39222,-0.5537 c 0.0923,-0.15134 0.16791,-0.30472 0.16809,-0.34084 4.2e-4,-0.0881 -0.4542,0.15129 -0.63985,0.33694 -0.14117,0.14116 -0.13853,0.15091 0.0555,0.2052 0.11203,0.0314 0.21377,0.0608 0.22609,0.0654 0.0123,0.005 0.0979,-0.11538 0.19019,-0.26673 z"
       id="path1" /></g></svg>
