<?xml version="1.0" encoding="UTF-8" standalone="no"?>
<!-- Created with Inkscape (http://www.inkscape.org/) -->

<svg
   width="58.081345mm"
   height="52.308968mm"
   viewBox="0 0 58.081345 52.308968"
   version="1.1"
   id="svg1"
   xml:space="preserve"
   xmlns:inkscape="http://www.inkscape.org/namespaces/inkscape"
   xmlns:sodipodi="http://sodipodi.sourceforge.net/DTD/sodipodi-0.dtd"
   xmlns="http://www.w3.org/2000/svg"
   xmlns:svg="http://www.w3.org/2000/svg"><sodipodi:namedview
     id="namedview1"
     pagecolor="#ffffff"
     bordercolor="#000000"
     borderopacity="0.25"
     inkscape:showpageshadow="2"
     inkscape:pageopacity="0.0"
     inkscape:pagecheckerboard="0"
     inkscape:deskcolor="#d1d1d1"
     inkscape:document-units="mm" /><defs
     id="defs1" /><g
     inkscape:label="Layer 1"
     inkscape:groupmode="layer"
     id="layer1"
     transform="translate(-74.379709,-172.69442)"><path
       style="fill:#6c4016;fill-opacity:1"
       d="m 87.732809,223.37653 -1.590559,-1.62826 0.04979,1.18231 c 0.07041,1.67192 0.08257,1.72826 0.38582,1.78891 0.65215,0.13043 0.204515,0.19774 -1.315111,0.19774 h -1.657606 l 0.04074,-0.1905 c 0.02241,-0.10478 -0.0436,-0.4191 -0.146677,-0.6985 l -0.187416,-0.508 -0.723975,-0.0242 -0.723974,-0.0242 -0.1938,0.54896 c -0.204373,0.57891 -0.18793,0.72714 0.08066,0.72714 0.09039,0 0.164336,0.0381 0.164336,0.0847 0,0.0531 -0.539514,0.0847 -1.449208,0.0847 h -1.449208 l 0.04849,-0.18542 c 0.04033,-0.15422 -0.239236,-2.59541 -0.304328,-2.65741 -0.01141,-0.0109 -0.321881,0.62599 -0.689939,1.41523 -0.483497,1.03679 -0.705427,1.42802 -0.799758,1.40985 -0.07328,-0.0141 -0.433255,-0.62969 -0.820467,-1.40304 l -0.689904,-1.3779 -0.140171,1.0511 c -0.195003,1.46228 -0.193169,1.48722 0.113829,1.54862 0.506407,0.10128 0.236213,0.19897 -0.550333,0.19897 -0.479778,0 -0.804333,-0.0342 -0.804333,-0.0847 0,-0.0466 0.07486,-0.0847 0.166354,-0.0847 0.09149,0 0.202812,-0.0681 0.247371,-0.15138 0.04456,-0.0833 0.18187,-0.83573 0.305137,-1.67216 0.341331,-2.31613 0.405524,-2.62146 0.551138,-2.62146 0.08026,0 0.435268,0.61409 0.964579,1.66852 l 0.837579,1.66851 0.755413,-1.58179 c 0.757132,-1.58539 0.875535,-1.79757 1.00309,-1.79757 0.108049,0 0.144825,0.17848 0.460829,2.23651 0.163708,1.06618 0.34016,1.98973 0.392114,2.05233 0.05196,0.0626 0.238643,0.11383 0.414862,0.11383 0.364885,0 0.167616,0.37522 1.48214,-2.81918 0.485639,-1.18014 0.688671,-1.585 0.785501,-1.56633 0.08228,0.0159 0.433001,0.75084 0.948222,1.98714 0.449701,1.07909 0.879805,2.05685 0.955786,2.17281 0.162015,0.24727 0.568367,0.36088 0.816253,0.22821 0.16853,-0.0902 0.174342,-0.16114 0.175595,-2.14347 7.71e-4,-1.21902 0.03552,-2.10167 0.08571,-2.17718 0.06802,-0.10234 0.397559,0.18949 1.696984,1.50283 0.886914,0.89641 1.629394,1.62983 1.649956,1.62983 0.02056,0 0.03739,-0.58783 0.03739,-1.30628 0,-1.39368 -0.0496,-1.57238 -0.436436,-1.57238 -0.09864,0 -0.155493,-0.0446 -0.135064,-0.10584 0.04677,-0.14031 1.516395,-0.14981 1.562966,-0.0101 0.01755,0.0526 -0.05896,0.11853 -0.17002,0.14641 -0.200866,0.0504 -0.202223,0.0588 -0.257688,1.59001 -0.03067,0.84663 -0.05576,1.81897 -0.05576,2.16075 0,0.53484 -0.02065,0.62163 -0.148166,0.62289 -0.082,8e-4 -0.858512,-0.72574 -1.738727,-1.62682 z m -4.63244,-0.43437 c 0,-0.0756 -0.447135,-1.12464 -0.50534,-1.18562 -0.03694,-0.0387 -0.143784,0.15181 -0.237439,0.42334 -0.09366,0.27152 -0.197521,0.56035 -0.230811,0.64185 -0.05374,0.13154 -0.0025,0.14816 0.456531,0.14816 0.284382,0 0.517059,-0.0125 0.517059,-0.0277 z m 8.572497,1.99658 c -0.48218,-0.0152 -0.86783,-0.0637 -0.86783,-0.10914 0,-0.0449 0.0771,-0.0817 0.17143,-0.0817 0.29234,0 0.34115,-0.34365 0.31706,-2.23236 l -0.0228,-1.7893 -0.27628,-0.0813 c -0.544929,-0.16039 -0.229418,-0.2571 0.91821,-0.28143 1.895911,-0.0402 2.656511,0.15482 3.233631,0.82905 0.38032,0.44432 0.51858,0.94551 0.4655,1.68743 -0.0517,0.72233 -0.33164,1.24373 -0.86472,1.61049 -0.44993,0.30957 -1.200781,0.51782 -1.779631,0.4936 -0.23469,-0.01 -0.81724,-0.0302 -1.29454,-0.0453 z m 2.037611,-0.48285 c 0.66759,-0.23809 0.98488,-0.77048 0.98654,-1.65533 10e-4,-0.72553 -0.27467,-1.34033 -0.74005,-1.6483 -0.372071,-0.24623 -1.229501,-0.43831 -1.572401,-0.35225 l -0.22486,0.0564 9.3e-4,1.45889 c 0.001,1.8346 0.0354,2.06134 0.32707,2.16831 0.32016,0.11742 0.8494,0.1054 1.222771,-0.0278 z m 14.366023,0.4718 c -0.63997,-0.20945 -1.15357,-0.64152 -1.45823,-1.22675 -0.2551,-0.49002 -0.26057,-1.46588 -0.0113,-2.00862 0.21559,-0.46932 0.64969,-0.91965 1.09722,-1.13821 0.39814,-0.19444 1.53152,-0.26818 2.03563,-0.13244 0.49084,0.13217 0.99766,0.52988 1.2737,0.99949 0.21401,0.36408 0.23843,0.48395 0.23789,1.16773 -6.8e-4,0.84901 -0.14198,1.23022 -0.64091,1.72916 -0.45247,0.45247 -0.88757,0.62544 -1.64449,0.65375 -0.37253,0.0139 -0.77283,-0.006 -0.88954,-0.0441 z m 1.57204,-0.52166 c 0.43703,-0.27009 0.62999,-0.76432 0.62901,-1.61104 -0.001,-1.28538 -0.56646,-2.04682 -1.51326,-2.03948 -0.78109,0.006 -1.21647,0.40074 -1.37238,1.24414 -0.10199,0.55172 -0.0452,1.02119 0.18879,1.55982 0.21283,0.48999 0.37844,0.66964 0.79268,0.85985 0.44763,0.20556 0.92919,0.20054 1.27516,-0.0133 z m 3.48734,0.534 c -0.79086,-0.0161 -1.3335,-0.0607 -1.3335,-0.10962 0,-0.0454 0.0771,-0.0825 0.17143,-0.0825 0.28342,0 0.33657,-0.34082 0.33657,-2.15846 0,-1.84342 -0.0322,-1.9902 -0.43644,-1.9902 -0.0987,0 -0.15544,-0.0445 -0.1349,-0.10584 0.0254,-0.076 0.2942,-0.10583 0.95255,-0.10583 0.65847,0 0.92706,0.0298 0.95235,0.10583 0.0199,0.0597 -0.0343,0.10584 -0.12424,0.10584 -0.33694,0 -0.36266,0.13584 -0.36266,1.91588 0,2.01925 -0.0163,1.97878 0.79726,1.97878 0.55658,0 0.81141,-0.14169 0.81141,-0.45116 0,-0.0778 0.062,-0.1415 0.13777,-0.1415 0.11431,0 0.13085,0.0721 0.0971,0.42333 -0.0458,0.47643 0.0497,0.54327 0.33252,0.23283 0.0955,-0.10477 0.48831,-0.97155 0.87299,-1.92616 0.82617,-2.05024 0.99017,-2.39262 1.12533,-2.34924 0.0557,0.0179 0.39369,0.7157 0.75106,1.5507 0.35737,0.83501 0.75381,1.76035 0.88097,2.05631 0.24941,0.58048 0.48568,0.85889 0.72889,0.85889 0.0844,0 0.15337,0.0381 0.15337,0.0847 0,0.0506 -0.32757,0.0847 -0.81339,0.0847 -0.67867,0 -0.80553,-0.0205 -0.76591,-0.12373 0.0261,-0.068 -0.052,-0.3933 -0.17369,-0.72277 l -0.22117,-0.59904 -0.7191,0.0243 -0.71911,0.0243 -0.19998,0.53536 c -0.21256,0.56903 -0.20164,0.6923 0.0613,0.6923 0.0904,0 0.16433,0.0381 0.16433,0.0847 0,0.0506 -0.33238,0.0851 -0.8255,0.0858 -0.45402,6.4e-4 -0.9017,0.0119 -0.99483,0.025 -0.0931,0.0131 -0.76941,0.0116 -1.50283,-0.003 z m 4.48675,-2.07597 c -0.0219,-0.0582 -0.12703,-0.3458 -0.23356,-0.6391 -0.10654,-0.29329 -0.22326,-0.50284 -0.25938,-0.46566 -0.0361,0.0372 -0.16199,0.32477 -0.27971,0.63909 l -0.21401,0.5715 h 0.51326 c 0.37543,0 0.50256,-0.0284 0.4734,-0.10583 z m -20.636923,1.98858 c 0,-0.0355 0.0857,-0.1022 0.1905,-0.14817 0.1752,-0.0769 0.19246,-0.14715 0.21495,-0.87524 0.0233,-0.75294 0.0114,-0.81505 -0.24298,-1.27 -0.57164,-1.02242 -1.12241,-1.78197 -1.36501,-1.88247 -0.43807,-0.18145 -0.22396,-0.2892 0.57469,-0.2892 h 0.75485 l -0.0245,0.23355 c -0.016,0.15225 0.0981,0.44696 0.3278,0.84666 0.66432,1.15618 0.53691,1.13436 1.06992,0.18327 0.389,-0.69414 0.45025,-0.85799 0.36919,-0.98777 -0.0534,-0.0856 -0.0792,-0.1846 -0.0573,-0.22004 0.0701,-0.11346 1.344953,-0.0673 1.384083,0.0502 0.0194,0.0582 -0.0221,0.10584 -0.0923,0.10584 -0.254223,0 -0.656063,0.45374 -1.197123,1.35174 l -0.55209,0.91632 v 0.8387 c 0,0.89198 0.0573,1.0419 0.39793,1.0419 0.1071,0 0.19473,0.0381 0.19473,0.0847 0,0.0515 -0.381,0.0847 -0.97366,0.0847 -0.53552,0 -0.97367,-0.0291 -0.97367,-0.0646 z m 4.995333,-0.0201 c 0,-0.0466 0.0772,-0.0847 0.17143,-0.0847 0.29213,0 0.34116,-0.3438 0.31706,-2.22321 -0.0243,-1.8927 -0.01,-1.82779 -0.44615,-1.96737 -0.15594,-0.0499 -0.15777,-0.0606 -0.0232,-0.1362 0.21635,-0.12147 1.77884,-0.0595 1.82253,0.0723 0.0204,0.0616 -0.0373,0.10584 -0.13833,0.10584 -0.26305,0 -0.34911,0.25768 -0.34454,1.0316 l 0.004,0.70406 0.71534,-0.762 c 0.5515,-0.58748 0.71052,-0.81048 0.69433,-0.97366 -0.0209,-0.21068 -0.0177,-0.21167 0.69165,-0.21167 0.79102,0 0.97815,0.1222 0.43589,0.28467 -0.24625,0.0738 -0.54524,0.31181 -1.10302,0.87815 -0.42085,0.42731 -0.76519,0.80261 -0.76519,0.834 0,0.0951 1.87142,2.02354 2.06418,2.12713 0.0987,0.0531 0.29094,0.11939 0.42716,0.14743 0.13622,0.028 0.26322,0.0976 0.28222,0.15463 0.0254,0.0763 -0.15387,0.10366 -0.67946,0.10366 -0.6496,0 -0.74389,-0.0216 -1.04506,-0.2398 -0.18207,-0.13189 -0.63546,-0.60923 -1.00753,-1.06075 l -0.67651,-0.82095 -0.0259,0.65858 c -0.038,0.96894 0.0227,1.20405 0.32658,1.26483 0.53635,0.10727 0.20438,0.19809 -0.72406,0.19809 -0.59267,0 -0.97367,-0.0331 -0.97367,-0.0847 z m 18.288,0.006 c 0,-0.0433 0.0852,-0.091 0.18936,-0.10584 0.2624,-0.0375 0.30786,-0.36949 0.31376,-2.29188 l 0.005,-1.5875 h -0.57954 c -0.45393,0 -0.60992,0.0336 -0.71967,0.15483 -0.0771,0.0852 -0.14012,0.20263 -0.14012,0.26105 0,0.0584 -0.0476,0.0898 -0.10583,0.0697 -0.0996,-0.0344 -0.10625,-0.76789 -0.008,-0.92864 0.0208,-0.0341 0.91178,-0.0532 1.98005,-0.0423 1.48024,0.015 1.95215,0.0453 1.98369,0.12752 0.0616,0.16037 -0.0507,0.86585 -0.13777,0.86585 -0.0414,0 -0.10949,-0.0901 -0.15134,-0.20012 -0.096,-0.25246 -0.24282,-0.30788 -0.81565,-0.30788 h -0.45874 v 1.81428 c 0,1.93468 0.0301,2.08038 0.42938,2.08038 0.0898,0 0.16329,0.0381 0.16329,0.0847 0,0.0515 -0.381,0.0847 -0.97367,0.0847 -0.54415,0 -0.97367,-0.0348 -0.97367,-0.0788 z m 3.34434,-0.006 c 0.0288,-0.0466 0.10588,-0.0847 0.17135,-0.0847 0.25605,0 0.29769,-0.32858 0.27481,-2.16854 -0.0243,-1.95197 -0.009,-1.88225 -0.44616,-2.02204 -0.15593,-0.0498 -0.15776,-0.0606 -0.0232,-0.13619 0.20772,-0.11662 1.7787,-0.0599 1.82035,0.0657 0.0181,0.0546 -0.0547,0.11177 -0.16191,0.127 -0.23269,0.0331 -0.29836,0.26921 -0.3129,1.12518 l -0.01,0.58949 0.43016,-0.42015 c 0.23659,-0.23109 0.58584,-0.60448 0.77612,-0.82977 0.27477,-0.32532 0.32142,-0.42477 0.22671,-0.4833 -0.25821,-0.15959 0.0652,-0.25734 0.7694,-0.23256 0.75497,0.0266 0.99817,0.17313 0.45605,0.27483 -0.24359,0.0457 -0.49962,0.24129 -1.16432,0.88949 l -0.85207,0.83091 0.61775,0.68527 c 0.83188,0.92278 1.52826,1.54887 1.68845,1.51802 0.0804,-0.0155 0.29145,-0.42165 0.54112,-1.04121 0.9074,-2.25172 1.35881,-3.2595 1.46,-3.2595 0.11262,0 0.46356,0.75827 1.31268,2.83633 0.52053,1.27389 0.77376,1.651 1.10867,1.651 0.0905,0 0.16461,0.0381 0.16461,0.0847 0,0.0508 -0.34056,0.0847 -0.85237,0.0847 -0.7886,0 -0.84868,-0.0116 -0.80301,-0.15552 0.0272,-0.0855 -0.0424,-0.39986 -0.15454,-0.6985 l -0.20389,-0.54298 -0.7208,-0.0243 -0.7208,-0.0243 -0.18353,0.55151 c -0.19448,0.58441 -0.17744,0.72485 0.0879,0.72485 0.0904,0 0.16434,0.0381 0.16434,0.0847 0,0.0519 -0.40196,0.0845 -1.03717,0.0844 -1.28172,-3.9e-4 -1.29754,-0.009 -2.31264,-1.21805 l -0.75653,-0.90128 -0.0271,0.48832 c -0.0149,0.26858 -0.002,0.68989 0.0277,0.93625 0.0502,0.41025 0.0756,0.45208 0.30231,0.49741 0.53527,0.10706 0.20009,0.19767 -0.73119,0.19767 -0.63088,0 -0.96006,-0.0301 -0.92633,-0.0847 z m 6.39818,-2.45469 c -0.12668,-0.32561 -0.25059,-0.61227 -0.27534,-0.63703 -0.0248,-0.0247 -0.13183,0.19403 -0.23795,0.48619 -0.10612,0.29216 -0.21089,0.57882 -0.23281,0.63703 -0.0291,0.0773 0.097,0.10583 0.46829,0.10583 h 0.50815 z m -7.84694,-3.68266 c -1.37123,-0.29829 -2.36955,-1.32342 -2.66256,-2.73407 -0.2053,-0.98839 0.0918,-2.20451 0.73827,-3.02202 1.23553,-1.56242 4.23554,-1.72261 5.68828,-0.30374 1.10545,1.07966 1.26063,3.15559 0.34109,4.56291 -0.53362,0.81669 -1.23732,1.28334 -2.26313,1.50076 -0.68482,0.14516 -1.16158,0.14416 -1.84195,-0.004 z m 2.25805,-0.77018 c 0.38457,-0.22267 0.80468,-0.85924 0.91906,-1.39259 0.20477,-0.95481 0.0781,-2.3358 -0.27731,-3.02271 -0.63953,-1.23611 -2.32586,-1.65063 -3.39562,-0.83468 -0.84396,0.64372 -1.11163,2.69849 -0.51989,3.99101 0.22374,0.48871 0.73854,1.05229 1.16058,1.27053 0.58514,0.30259 1.58004,0.29714 2.11318,-0.0116 z m -24.543013,0.7481 c -1.65779,-0.0226 -1.80278,-0.0366 -1.77731,-0.17111 0.0179,-0.0947 0.12219,-0.15565 0.29501,-0.17246 0.14841,-0.0144 0.29722,-0.0897 0.33462,-0.16933 0.0955,-0.20328 0.14442,-5.34521 0.0542,-5.69533 -0.0662,-0.25695 -0.11269,-0.29483 -0.40761,-0.33234 -0.2285,-0.0291 -0.34171,-0.0888 -0.36106,-0.1905 -0.0262,-0.13762 0.12288,-0.14917 2.094683,-0.16228 1.16758,-0.008 2.18955,-0.0173 2.27104,-0.0212 0.12685,-0.006 0.14458,0.0599 0.12325,0.45861 -0.0137,0.25612 -0.0453,0.57045 -0.0702,0.6985 -0.0508,0.26125 -0.28585,0.32117 -0.28585,0.0729 0,-0.088 -0.0677,-0.2435 -0.15034,-0.34561 -0.1314,-0.16227 -0.25936,-0.19166 -1.016,-0.23335 l -0.86566,-0.0477 v 1.15532 1.15531 h 0.87016 c 0.66414,0 0.9164,-0.0324 1.06547,-0.1368 0.10844,-0.076 0.22617,-0.1042 0.2647,-0.0635 0.0382,0.0403 0.0445,0.39673 0.014,0.79204 -0.0455,0.5908 -0.0817,0.72378 -0.20353,0.74704 -0.10757,0.0206 -0.14817,-0.027 -0.14817,-0.17339 0,-0.40649 -0.15202,-0.48626 -1.03716,-0.54421 l -0.8255,-0.054 v 1.24043 c 0,1.61306 -0.005,1.60689 1.18896,1.56563 0.46615,-0.0161 0.8769,-0.0709 0.92998,-0.12409 0.0523,-0.0524 0.14581,-0.24288 0.20785,-0.42333 0.062,-0.18046 0.16396,-0.32811 0.2265,-0.32811 0.15738,0 0.18581,0.38009 0.0701,0.93734 -0.10733,0.51698 -0.27461,0.64648 -0.78744,0.60961 -0.14831,-0.0107 -1.08192,-0.0305 -2.074703,-0.044 z m -25.31497,-0.16941 c 0.01848,-0.0975 0.121752,-0.15722 0.30227,-0.17467 0.21539,-0.0208 0.287371,-0.0753 0.335603,-0.254 0.08253,-0.30576 0.08345,-5.41494 10e-4,-5.70966 -0.05372,-0.1921 -0.112973,-0.23306 -0.338667,-0.23413 -0.352438,-0.002 -0.561817,-0.12531 -0.432019,-0.2551 0.06511,-0.0651 0.678124,-0.0858 1.988959,-0.067 1.824713,0.0261 1.910486,0.0349 2.31761,0.23876 0.267872,0.13412 0.51604,0.34618 0.677334,0.57879 0.217104,0.31311 0.254563,0.44552 0.254563,0.89987 0,0.48078 -0.03218,0.57946 -0.329942,1.0118 -0.181467,0.26348 -0.438642,0.55646 -0.5715,0.65107 -0.132857,0.0946 -0.241558,0.20363 -0.241558,0.24229 0,0.0997 1.433157,1.92309 1.840086,2.34116 0.447637,0.45991 1.002276,0.67474 1.480239,0.57336 0.27498,-0.0583 0.368494,-0.12315 0.414005,-0.28701 0.09408,-0.33873 0.0869,-5.57815 -0.0079,-5.75527 -0.04917,-0.0919 -0.223425,-0.17976 -0.423334,-0.21354 -0.200674,-0.0339 -0.33977,-0.10425 -0.33977,-0.17184 0,-0.0926 0.43161,-0.11944 2.264833,-0.14072 1.245659,-0.0145 2.275535,-0.0219 2.288615,-0.0166 0.01308,0.005 -0.006,0.30965 -0.04233,0.67629 -0.05313,0.53571 -0.09521,0.6722 -0.214281,0.69504 -0.106492,0.0204 -0.148531,-0.0269 -0.149463,-0.16829 -7.13e-4,-0.10819 -0.03324,-0.24709 -0.07228,-0.30867 -0.101009,-0.15931 -0.631574,-0.26468 -1.344589,-0.26702 l -0.613833,-0.002 v 1.143 1.143 h 0.872817 c 0.636365,0 0.917342,-0.0337 1.037167,-0.12431 0.380555,-0.28784 0.43495,-0.12572 0.321621,0.95855 -0.05954,0.56962 -0.248713,0.71939 -0.338925,0.26832 -0.02773,-0.13865 -0.09821,-0.29176 -0.15662,-0.34024 -0.05841,-0.0485 -0.475826,-0.11241 -0.927592,-0.14209 l -0.821393,-0.0539 0.02763,1.24853 c 0.03433,1.55133 0.04941,1.57254 1.116509,1.57061 0.85097,-0.002 1.074328,-0.1049 1.236843,-0.57232 0.06841,-0.19677 0.178199,-0.35777 0.243967,-0.35777 0.09593,0 0.11156,0.12495 0.07902,0.63193 -0.02231,0.34757 -0.08913,0.69047 -0.148502,0.762 -0.09342,0.11256 -0.517186,0.13007 -3.148298,0.13007 -2.393843,0 -3.09983,-0.0249 -3.320056,-0.11687 -0.332564,-0.13895 -0.949808,-0.82503 -1.684899,-1.8728 l -0.534603,-0.762 -0.493497,-0.0257 -0.493497,-0.0257 0.03413,1.09557 c 0.03643,1.16931 0.102788,1.36881 0.455278,1.36881 0.28247,0 0.462225,0.0858 0.462225,0.22073 0,0.0962 -0.266404,0.11794 -1.445542,0.11794 -1.330954,0 -1.443316,-0.0117 -1.417473,-0.14817 z m 3.455328,-3.47912 c 0.587288,-0.58728 0.506701,-2.01918 -0.137391,-2.4412 -0.277362,-0.18174 -0.786848,-0.28611 -1.111089,-0.22763 l -0.275167,0.0496 v 1.38137 c 0,1.56872 -0.06294,1.45166 0.78968,1.46863 0.435899,0.009 0.521365,-0.0182 0.733967,-0.2308 z m 9.434837,3.53316 c -0.07286,-0.11789 0.114083,-0.24153 0.367779,-0.24324 0.128851,-8.7e-4 0.220299,-0.0742 0.276298,-0.22145 0.05075,-0.13349 0.07492,-1.32138 0.0614,-3.01764 -0.02424,-3.04163 0.0044,-2.87372 -0.509131,-2.98178 -0.129172,-0.0272 -0.232833,-0.10572 -0.232833,-0.17642 0,-0.1093 0.200825,-0.12413 1.411196,-0.10422 0.990648,0.0163 1.421089,0.053 1.444394,0.12306 0.01991,0.0599 -0.110852,0.12834 -0.326754,0.17104 -0.314983,0.0623 -0.369175,0.10677 -0.433766,0.35603 -0.0406,0.15667 -0.06187,1.47409 -0.04727,2.92761 0.02881,2.86937 0.03782,2.92247 0.495647,2.92247 0.322629,0 0.504558,0.0796 0.504558,0.22073 0,0.0963 -0.270925,0.11794 -1.47667,0.11794 -0.992114,0 -1.49576,-0.0309 -1.534847,-0.0941 z m 5.334004,0 c -0.0729,-0.11789 0.11408,-0.24153 0.36778,-0.24324 0.12816,-8.6e-4 0.22021,-0.0739 0.27516,-0.21847 0.0475,-0.12495 0.0826,-1.38631 0.0826,-2.97012 v -2.75294 l -0.86783,0.0581 c -0.93775,0.0628 -1.21467,0.17084 -1.299,0.50686 -0.0548,0.21851 -0.24897,0.28687 -0.30839,0.10859 -0.0322,-0.0965 0.0503,-0.75719 0.1404,-1.12566 0.0405,-0.16538 0.11168,-0.16933 3.053781,-0.16933 h 3.01235 l -0.0242,0.71283 c -0.0162,0.4794 -0.059,0.72439 -0.13065,0.74811 -0.0643,0.0213 -0.12763,-0.0704 -0.15989,-0.23173 -0.0776,-0.38795 -0.3066,-0.48648 -1.28669,-0.55362 l -0.87574,-0.06 0.0299,2.78253 c 0.0217,2.01591 0.0589,2.83368 0.13529,2.96819 0.0776,0.13663 0.20011,0.19252 0.46412,0.21166 0.26159,0.019 0.36633,0.0661 0.38682,0.17418 0.0259,0.13655 -0.0882,0.14817 -1.45477,0.14817 -0.996671,0 -1.501951,-0.0309 -1.541061,-0.0941 z m 11.139524,-0.035 c 0,-0.0761 0.1056,-0.15023 0.257,-0.18051 0.4512,-0.0902 0.46266,-0.16877 0.46266,-3.1698 0,-2.98853 -0.007,-3.03859 -0.45486,-3.0412 -0.3076,-0.002 -0.50328,-0.13275 -0.38104,-0.255 0.0651,-0.0651 0.69068,-0.0857 2.0313,-0.067 1.79293,0.025 1.9625,0.0406 2.27594,0.20925 0.42508,0.22877 0.67494,0.49436 0.84262,0.89568 0.28944,0.69273 0.0797,1.39442 -0.62828,2.10245 -0.25447,0.25447 -0.4049,0.46991 -0.36963,0.52936 0.14991,0.25268 1.64543,2.07657 1.90104,2.31846 0.41184,0.38973 0.86969,0.56042 1.32149,0.49267 0.2906,-0.0436 0.38769,-0.10107 0.45074,-0.26689 0.12436,-0.3271 0.10476,-5.73005 -0.0212,-5.85605 -0.0559,-0.0559 -0.19876,-0.10219 -0.3175,-0.1029 -0.27417,-0.002 -0.46648,-0.12125 -0.39108,-0.24324 0.0634,-0.10254 2.76932,-0.13877 2.86967,-0.0384 0.10299,0.10299 -0.13072,0.28296 -0.36747,0.28296 -0.14344,0 -0.25855,0.0576 -0.2963,0.14816 -0.0339,0.0815 -0.0812,0.63395 -0.10496,1.22767 l -0.0432,1.0795 h 1.70458 1.70457 v -1.12607 c 0,-1.20664 -0.0383,-1.32827 -0.4191,-1.33056 -0.29632,-0.002 -0.49538,-0.13409 -0.37813,-0.25134 0.0587,-0.0587 0.57784,-0.0822 1.48096,-0.067 1.16927,0.0196 1.3906,0.0435 1.3906,0.15033 0,0.0856 -0.10335,0.13556 -0.31716,0.15326 -0.26177,0.0217 -0.32832,0.066 -0.381,0.254 -0.0351,0.12526 -0.0632,1.42789 -0.0624,2.89474 0.002,2.92545 0.02,3.048 0.46031,3.048 0.33099,0 0.51195,0.0787 0.51195,0.22268 0,0.0998 -0.25212,0.11602 -1.50284,0.0968 -1.26913,-0.0195 -1.50283,-0.0429 -1.50283,-0.15012 0,-0.0818 0.0994,-0.13655 0.27942,-0.15385 0.39314,-0.0378 0.44025,-0.22574 0.44025,-1.75666 v -1.30683 h -1.70433 -1.70433 l 0.0381,1.39111 c 0.0418,1.52734 0.0824,1.65603 0.52345,1.65819 0.31747,0.002 0.52012,0.11359 0.43999,0.24324 -0.0785,0.12694 -4.51244,0.13067 -4.84751,0.004 -0.35183,-0.13293 -0.64753,-0.44425 -1.36202,-1.43395 -0.93855,-1.30007 -0.90467,-1.27 -1.43108,-1.27 h -0.45091 l 0.008,0.99483 c 0.0103,1.21196 0.0562,1.41028 0.3337,1.44187 0.43397,0.0494 0.58919,0.11051 0.58919,0.23191 0,0.10583 -0.2246,0.12539 -1.43933,0.12539 -1.23345,0 -1.43933,-0.0185 -1.43933,-0.12912 z m 3.44993,-3.4642 c 0.46242,-0.3891 0.58471,-1.34715 0.25423,-1.99164 -0.24552,-0.47881 -0.62136,-0.68037 -1.26868,-0.68037 h -0.48815 v 1.38994 c 0,1.03274 0.0272,1.40092 0.10583,1.43265 0.0582,0.0235 0.34104,0.0457 0.62851,0.0494 0.43639,0.006 0.56321,-0.0274 0.76826,-0.19997 z m 20.42607,3.47538 c 0,-0.12779 0.17735,-0.22073 0.4212,-0.22073 0.0843,0 0.18512,-0.0667 0.22395,-0.14816 0.10726,-0.22506 0.14482,-5.6527 0.0405,-5.84767 -0.0534,-0.0997 -0.21851,-0.18326 -0.42856,-0.21685 -0.21422,-0.0343 -0.34174,-0.0998 -0.34174,-0.1756 0,-0.10122 0.37633,-0.12523 2.30717,-0.14717 1.26894,-0.0144 2.31555,-0.0242 2.3258,-0.0217 0.0103,0.002 -0.009,0.30683 -0.0423,0.67631 -0.0493,0.54319 -0.0893,0.67723 -0.20913,0.70019 -0.10809,0.0207 -0.14817,-0.027 -0.14817,-0.17636 0,-0.39367 -0.25683,-0.50914 -1.22856,-0.55236 l -0.8881,-0.0395 v 1.1541 1.1541 h 0.85477 c 0.65198,0 0.91249,-0.0341 1.09806,-0.14372 0.13381,-0.079 0.26827,-0.11874 0.2988,-0.0882 0.0305,0.0305 0.0222,0.39048 -0.0186,0.79989 -0.057,0.5723 -0.10343,0.74437 -0.20107,0.74437 -0.0747,0 -0.13778,-0.0933 -0.1532,-0.22664 -0.0399,-0.3455 -0.18066,-0.40702 -1.06387,-0.46503 l -0.81493,-0.0535 0.008,1.2616 c 0.0114,1.70765 0.0263,1.7475 0.69006,1.85355 0.19813,0.0317 0.3175,0.097 0.3175,0.17389 0,0.10321 -0.24688,0.12316 -1.524,0.12316 -1.2462,0 -1.524,-0.0215 -1.524,-0.11794 z m -6.90983,-10.0074 c -0.081,-0.32271 0.0943,-0.82843 0.58429,-1.68566 0.36401,-0.63682 0.44078,-0.84545 0.46732,-1.27 0.0361,-0.57825 -0.32208,-2.91225 -0.58004,-3.77922 -0.2714,-0.91212 -1.39934,-2.50848 -2.74371,-3.88311 -0.6148,-0.62865 -1.29254,-1.3716 -1.50607,-1.651 -0.45139,-0.59062 -1.0744,-1.19827 -2.13241,-2.07986 -0.4155,-0.34621 -1.04955,-0.97238 -1.409,-1.39148 -0.39397,-0.45934 -0.82466,-0.86288 -1.08437,-1.016 -0.23695,-0.1397 -0.43158,-0.28257 -0.4325,-0.3175 -0.004,-0.14065 0.62179,-0.0507 1.00779,0.14486 0.22614,0.1146 0.78685,0.55782 1.24601,0.98493 0.45917,0.42712 1.1206,0.98568 1.46985,1.24125 0.82792,0.60585 1.41657,1.1766 2.07352,2.01046 0.2935,0.37254 0.92985,1.05834 1.41412,1.524 0.8057,0.77475 1.24938,1.33877 2.33113,2.96334 0.37418,0.56193 0.57449,1.23963 0.83617,2.82888 0.25251,1.53358 0.28783,2.68481 0.0977,3.18245 -0.0712,0.18627 -0.34243,0.67649 -0.60277,1.08938 -0.26034,0.4129 -0.51996,0.87962 -0.57693,1.03717 -0.12662,0.35015 -0.37975,0.38708 -0.46006,0.0671 z m -23.818443,-0.15475 c -0.19779,-0.23832 0.22605,-1.15024 0.92682,-1.99409 0.55255,-0.66537 0.62117,-0.87232 0.56264,-1.69692 -0.0717,-1.00975 -0.40339,-2.07838 -0.98519,-3.1739 -0.3022,-0.56903 -0.60114,-1.29364 -0.76846,-1.86267 -0.32424,-1.10267 -0.69545,-2.09019 -1.17425,-3.12382 -0.50659,-1.09362 -0.31524,-1.0989 0.41067,-0.0113 0.612,0.91692 0.90282,1.47803 1.3959,2.69327 0.24976,0.61556 0.68736,1.59545 0.97245,2.17753 0.62041,1.26671 0.8766,2.26914 0.88718,3.47133 0.008,0.93014 -0.0477,1.07324 -0.77233,1.9761 -0.25561,0.31851 -0.60738,0.81381 -0.78172,1.10067 -0.33231,0.54681 -0.49777,0.65581 -0.67371,0.44381 z m 2.73782,-0.3321 c 0.0329,-0.1752 0.004,-0.39975 -0.0752,-0.58995 -0.15208,-0.36398 -0.16701,-0.92714 -0.0314,-1.18593 0.0533,-0.10171 0.22474,-0.32791 0.381003,-0.50267 0.38567,-0.43132 0.37143,-0.66478 -0.132263,-2.16739 -0.54634,-1.62987 -0.74517,-2.4387 -0.81477,-3.31454 -0.0315,-0.39581 -0.16869,-1.31021 -0.30495,-2.032 -0.32171,-1.70414 -0.4034,-2.9925 -0.21307,-3.36055 l 0.13722,-0.26537 -0.61219,-0.0983 c -0.76118,-0.12226 -0.90853,-0.16323 -0.90853,-0.25261 0,-0.0936 0.61505,-0.13947 2.159,-0.1609 3.900823,-0.0541 6.297663,-0.48642 9.174913,-1.65468 1.67649,-0.68071 2.1192,-0.81156 2.74583,-0.81156 0.38369,0 0.60004,0.0532 0.91597,0.22513 0.22749,0.12381 0.41361,0.24764 0.41359,0.27516 -2e-5,0.0275 -0.27625,0.0524 -0.61384,0.0554 -0.74615,0.006 -0.90213,0.0562 -2.77279,0.8836 -2.95329,1.30628 -4.72656,1.64431 -8.36457,1.59449 -1.823703,-0.025 -2.049563,-0.0133 -2.049503,0.10575 1.2e-4,0.23679 0.31836,1.86078 0.62913,3.21051 0.16619,0.72179 0.3252,1.63619 0.35335,2.032 0.0657,0.92387 0.196713,1.43971 0.750873,2.95681 0.78246,2.14213 0.79125,2.53843 0.0725,3.26754 l -0.38525,0.39078 0.0574,0.61228 c 0.0551,0.588 0.0483,0.62134 -0.17145,0.8411 -0.306353,0.30635 -0.405513,0.29063 -0.340853,-0.054 z m 9.252643,-0.20762 c -0.0756,-0.0835 -0.20039,-0.39775 -0.2774,-0.69835 -0.17844,-0.69652 -0.12429,-1.30083 0.21493,-2.39875 0.14205,-0.45975 0.25865,-0.91695 0.2591,-1.016 0.002,-0.43964 0.43141,-1.06307 1.57415,-2.28555 1.57625,-1.68624 1.75234,-1.94425 1.79611,-2.63175 0.0429,-0.67358 -0.15359,-1.14205 -0.90276,-2.15246 -0.66486,-0.89669 -1.02875,-1.55088 -1.40526,-2.52631 -0.29111,-0.75418 -0.36967,-1.12594 -0.23756,-1.12417 0.0349,4.7e-4 0.40108,0.55632 0.81369,1.23522 0.4126,0.6789 1.01298,1.5453 1.33417,1.92532 0.66958,0.79221 1.04765,1.49256 1.18824,2.20109 0.19256,0.97052 -0.20817,1.70025 -1.96037,3.56985 -1.0697,1.14137 -1.43716,1.64246 -1.44107,1.96513 -0.001,0.0833 -0.13194,0.52243 -0.29095,0.97573 -0.34733,0.99017 -0.42284,1.4385 -0.34593,2.05408 l 0.058,0.46423 0.26918,-0.13763 c 0.14806,-0.0757 0.55019,-0.34198 0.89364,-0.59175 0.55426,-0.40308 0.85722,-0.54735 0.85722,-0.40821 0,0.18419 -1.19734,1.35291 -1.59266,1.55459 -0.42596,0.21731 -0.62531,0.22368 -0.80448,0.0257 z m 14.50146,-0.23621 c -0.26296,-0.61348 -0.22122,-0.9926 0.18294,-1.66151 0.41483,-0.68656 0.41274,-0.7372 -0.0947,-2.30278 -0.41665,-1.28538 -0.73248,-2.84158 -0.89818,-4.42568 -0.0707,-0.67558 -0.16126,-1.31452 -0.20132,-1.41988 -0.0401,-0.10536 -0.40183,-0.52881 -0.80393,-0.94099 -0.92896,-0.95225 -1.34214,-1.57348 -1.60956,-2.42002 -0.28594,-0.90517 -0.27703,-1.61551 0.0487,-3.88245 0.21986,-1.52996 0.25527,-1.99591 0.22201,-2.921 -0.0343,-0.95426 -0.0765,-1.21141 -0.31695,-1.93319 -0.34601,-1.03855 -0.72757,-1.63401 -1.51163,-2.35905 -0.80263,-0.74221 -1.96063,-1.3254 -3.35403,-1.68913 -0.92455,-0.24134 -1.13413,-0.26539 -2.32834,-0.26717 -1.1782,-0.002 -1.47675,0.0305 -2.921,0.31521 -2.53545,0.49991 -3.03491,0.56597 -4.65811,0.61608 -2.13021,0.0658 -3.69662,-0.20215 -4.11264,-0.70343 -0.16583,-0.19981 -0.0353,-0.22191 0.4439,-0.0751 1.05607,0.3235 3.92562,0.23628 5.88831,-0.17897 0.54956,-0.11628 1.62786,-0.34438 2.39621,-0.50689 1.79317,-0.37926 3.52027,-0.47132 4.699,-0.25047 1.05175,0.19706 2.11153,0.56465 3.12328,1.08332 1.55329,0.7963 2.75202,2.23761 3.24089,3.89673 0.41202,1.3983 0.40969,2.79421 -0.009,5.46744 -0.44298,2.82753 -0.22158,3.64945 1.46725,5.44708 0.37949,0.40393 0.74893,0.87551 0.82098,1.04795 0.0782,0.18719 0.16054,0.77833 0.2043,1.46691 0.0979,1.54051 0.27322,2.61782 0.73496,4.51658 0.47225,1.94199 0.47414,1.92202 -0.27837,2.94446 -0.18896,0.25674 -0.21137,0.3529 -0.16771,0.71967 0.0277,0.23283 0.0738,0.50906 0.10234,0.61383 0.0957,0.35108 -0.13837,0.20168 -0.30949,-0.19752 z m -39.887342,-0.21699 c -0.17198,-0.17198 -0.178826,-0.23477 -0.128223,-1.17589 0.0445,-0.82753 0.09586,-1.1001 0.306412,-1.62592 0.160199,-0.40008 0.285294,-0.9172 0.341148,-1.41026 0.07891,-0.69658 0.142259,-0.8864 0.60173,-1.80298 0.567933,-1.13296 0.946676,-2.06273 1.137593,-2.79265 0.173919,-0.66494 0.582715,-1.54925 0.903307,-1.95403 0.147783,-0.18659 0.63305,-0.6083 1.078372,-0.93713 1.198491,-0.88498 2.875329,-2.24668 3.290549,-2.67215 0.20032,-0.20526 0.47838,-0.53912 0.61791,-0.74192 0.31148,-0.45273 0.42964,-0.47201 0.31391,-0.0512 -0.12276,0.44635 -0.34852,0.8665 -0.67612,1.25828 -0.39087,0.46745 -2.149485,2.06582 -3.128991,2.84388 -0.968937,0.76967 -1.169371,1.08097 -1.678945,2.60768 -0.194285,0.58208 -0.638663,1.64888 -0.987508,2.37066 -0.545679,1.12905 -0.650541,1.4206 -0.750804,2.08747 -0.06632,0.44108 -0.228329,1.03784 -0.375933,1.3847 -0.220409,0.51795 -0.259393,0.71639 -0.259393,1.32037 0,0.39094 0.02094,0.7108 0.04654,0.7108 0.10046,0 0.564741,-0.27268 1.092827,-0.64184 0.504959,-0.353 0.553968,-0.41378 0.553968,-0.68703 0,-0.21236 -0.07407,-0.38414 -0.254,-0.58907 -0.385563,-0.43913 -0.313195,-0.84328 0.255413,-1.4264 0.327069,-0.33541 0.591254,-0.90278 0.591254,-1.26978 0,-0.40379 0.435915,-1.89192 0.728488,-2.48692 0.239657,-0.48739 0.487432,-0.80349 1.131518,-1.44354 0.914837,-0.90909 1.304044,-1.14748 3.105816,-1.90227 1.35206,-0.5664 3.504881,-1.51586 3.997831,-1.76317 0.53066,-0.26623 0.7489,-0.65858 1.06621,-1.91686 0.15219,-0.60352 0.35756,-1.26279 0.45637,-1.46505 0.21263,-0.43523 0.56932,-0.89613 0.63966,-0.82653 0.0274,0.0271 -0.0459,0.3305 -0.16286,0.6743 -0.11694,0.3438 -0.27172,1.00746 -0.34397,1.47479 -0.21051,1.3617 -0.35329,1.78158 -0.75944,2.23331 -0.19804,0.22027 -0.56389,0.5016 -0.81301,0.62518 -1.22887,0.6096 -2.601441,1.2332 -3.695831,1.67914 -1.64251,0.66928 -2.171705,0.98231 -3.023165,1.78829 -0.600364,0.5683 -0.784417,0.80737 -1.060185,1.3771 -0.183534,0.37918 -0.429757,1.08781 -0.547161,1.57472 -0.370878,1.53814 -0.406293,1.63537 -0.72289,1.98466 -0.445189,0.49115 -0.463843,0.59981 -0.167246,0.9743 0.448448,0.56621 0.274914,1.19745 -0.520466,1.89323 -0.93096,0.81438 -1.816451,1.10399 -2.200683,0.71976 z m 27.362612,-1.84072 c -0.11482,-0.032 -0.27912,-0.17867 -0.36512,-0.32593 -0.20241,-0.34657 -0.10665,-0.53647 0.4402,-0.87295 0.34046,-0.20949 0.43677,-0.32925 0.59261,-0.73693 0.38285,-1.00156 1.10622,-1.90614 3.02985,-3.78879 1.45252,-1.42159 1.42951,-1.34167 0.75191,-2.61209 -0.5048,-0.94644 -0.72765,-1.59833 -0.72588,-2.12345 0.003,-0.83547 0.25404,-0.97844 0.41933,-0.23863 0.14666,0.65642 0.42358,1.26154 0.98322,2.14846 0.49536,0.78507 0.60177,1.13456 0.50404,1.6555 -0.0513,0.27349 -0.30014,0.5589 -1.68346,1.9309 -1.71725,1.70319 -2.27192,2.36764 -2.72219,3.26093 -0.31906,0.63298 -0.46885,0.78562 -0.90993,0.92724 -0.17463,0.0561 -0.3175,0.12547 -0.3175,0.15424 0,0.0288 0.0994,0.15606 0.22091,0.28288 0.12151,0.12683 0.19546,0.27179 0.16434,0.32214 -0.0621,0.10048 -0.0785,0.10118 -0.38233,0.0165 z m 17.83032,-5.76983 c -1.12358,-1.2136 -1.50927,-2.73763 -1.61698,-6.38944 -0.056,-1.90045 -0.15204,-2.8732 -0.39065,-3.95884 -0.64967,-2.95584 -2.25471,-5.08908 -4.5044,-5.98673 -0.60326,-0.24071 -1.80122,-0.51076 -2.26572,-0.51076 -0.13153,0 -0.3451,-0.0403 -0.47461,-0.0895 -0.40454,-0.15381 -0.065,-0.24656 0.90178,-0.24637 1.86602,3.6e-4 3.30475,0.56029 4.62123,1.79849 1.36361,1.28253 2.23299,3.0235 2.67107,5.34894 0.1459,0.77444 0.18817,1.46013 0.2456,3.98347 0.0719,3.15822 0.11339,3.54364 0.50142,4.65666 0.0974,0.2794 0.34771,0.8024 0.55623,1.16222 0.20852,0.35983 0.37912,0.67415 0.37912,0.6985 0,0.1392 -0.20539,-0.0144 -0.62409,-0.46661 z m -0.98662,0.14511 c -0.99051,-0.40753 -1.98418,-1.3328 -2.44654,-2.27812 -0.34016,-0.69547 -0.59942,-1.73668 -0.59942,-2.40731 0,-0.84273 0.18005,-0.70803 0.54789,0.4099 0.17132,0.52068 0.40916,1.13981 0.52852,1.37584 0.49851,0.98571 1.28395,1.91658 2.202,2.60972 0.67924,0.51283 0.58747,0.62731 -0.23245,0.28997 z m -2.82033,-1.16275 c -0.84896,-0.60792 -1.65533,-1.77691 -2.07022,-3.00113 -0.4384,-1.29362 -0.47614,-1.67262 -0.48907,-4.91067 -0.0132,-3.30397 -0.0791,-3.97209 -0.48054,-4.86833 -0.25476,-0.56885 -0.81415,-1.28781 -1.16173,-1.49313 -0.50827,-0.30024 -0.14858,-0.40558 0.41068,-0.12026 0.85012,0.43369 1.47089,1.36927 1.85263,2.79212 0.21197,0.79004 0.21796,0.88619 0.23278,3.73193 0.0168,3.22929 0.0479,3.49629 0.60052,5.16467 0.31941,0.96422 0.73978,1.74123 1.34192,2.48043 0.56764,0.69684 0.50528,0.75588 -0.23697,0.22437 z m -34.341762,-6.30802 c -0.967842,-1.04998 -1.561092,-3.22815 -1.278409,-4.69379 0.04038,-0.20937 0.04641,-0.39987 0.0134,-0.42333 -0.223514,-0.15886 -1.12575,-1.87612 -1.868631,-3.55663 -0.578529,-1.30873 -1.302554,-2.27396 -1.787688,-2.38327 -0.06648,-0.015 -0.310759,0.17625 -0.542835,0.42494 -0.24056,0.25779 -0.639275,0.56188 -0.927471,0.70736 -0.296857,0.14985 -0.804157,0.54029 -1.229042,0.94591 -0.397942,0.37991 -0.863816,0.80429 -1.035277,0.94307 -0.347937,0.28163 -0.492586,0.58272 -0.492586,1.02532 0,0.37576 -0.345685,0.74286 -0.811349,0.86159 -1.388759,0.35411 -2.197288,0.24808 -2.616947,-0.34319 -0.418086,-0.58905 -0.805038,-1.35416 -0.805038,-1.59178 0,-0.14647 0.224689,-0.88198 0.499309,-1.63447 0.692435,-1.89737 1.164782,-3.40742 1.317232,-4.21107 0.0952,-0.50186 0.294861,-1.02493 0.75892,-1.98824 0.346352,-0.71896 0.670563,-1.3072 0.720469,-1.3072 0.196784,0 0.07664,0.64307 -0.41128,2.20133 -0.18226,0.58208 -0.37749,1.32504 -0.433844,1.651 -0.143369,0.82927 -1.112739,3.88454 -1.577027,4.97048 -0.132027,0.3088 -0.129936,0.3204 0.131027,0.72708 0.145857,0.2273 0.265194,0.45165 0.265194,0.49857 0,0.12999 0.264819,0.33099 0.571575,0.43384 0.316607,0.10614 1.448918,-0.0524 1.66704,-0.23344 0.07016,-0.0582 0.152721,-0.24492 0.18346,-0.41487 0.09199,-0.50858 0.269358,-0.76848 1.204025,-1.76431 0.612427,-0.6525 1.040044,-1.02942 1.363567,-1.20191 0.832288,-0.44376 1.157737,-0.72924 1.403137,-1.23082 0.322096,-0.65834 0.368872,-1.36827 0.135538,-2.05711 -0.211355,-0.62396 -0.217457,-0.70118 -0.05541,-0.70118 0.127264,0 0.527386,0.5419 0.706238,0.95649 0.124761,0.2892 0.134817,1.48661 0.01513,1.80141 -0.09512,0.25019 -0.03326,0.40008 0.08569,0.20762 0.209236,-0.33856 1.637515,0.93274 2.090224,1.86049 0.554499,1.13634 1.397101,3.23699 1.499225,3.73764 l 0.105929,0.51931 0.182741,-0.49864 c 0.281569,-0.76832 0.763439,-1.52095 1.426672,-2.22832 1.00654,-1.07352 1.43796,-1.17096 0.70133,-0.1584 -1.233016,1.6949 -1.883096,3.73389 -1.673247,5.24818 0.120692,0.87094 0.461455,1.98038 0.795707,2.59064 0.16029,0.29265 0.29143,0.56887 0.29143,0.61383 0,0.18871 -0.25576,0.0564 -0.588126,-0.30413 z m 9.605132,-11.50858 c -0.18626,-0.0618 -0.852663,-0.27246 -1.480883,-0.46805 -0.62822,-0.1956 -1.35857,-0.46484 -1.62299,-0.59832 -0.57554,-0.29053 -2.18574,-1.36748 -3.582021,-2.39576 -2.20284,-1.62226 -4.05283,-2.47546 -6.45043,-2.97489 -0.537832,-0.11204 -1.075497,-0.13336 -2.823347,-0.11197 l -2.159,0.0264 -0.5715,-0.2697 c -0.314325,-0.14834 -0.5715,-0.23096 -0.5715,-0.1836 0,0.0474 0.117329,0.36794 0.260732,0.71241 0.242763,0.58315 0.26342,0.80126 0.07588,0.80126 -0.15891,0 -0.651375,-0.51202 -0.791638,-0.82306 -0.105887,-0.23482 -0.22256,-0.34742 -0.425935,-0.41107 l -0.280101,-0.0877 0.248587,0.53121 c 0.409906,0.87595 0.165813,1.16731 -0.343137,0.40959 -0.550996,-0.82033 -0.821177,-1.55739 -0.654458,-1.78539 0.09925,-0.13573 0.140118,-0.12797 0.579535,0.11003 l 0.472758,0.25606 -0.01561,-0.47569 c -0.01378,-0.41986 0.0046,-0.47857 0.156523,-0.50033 0.09467,-0.0136 0.342324,0.10318 0.550333,0.25942 1.688674,1.26836 1.735787,1.28811 2.461599,1.03203 1.02792,-0.36267 2.817454,-0.4707 4.107341,-0.24795 2.652145,0.458 4.583518,1.42246 7.567589,3.77898 1.92867,1.52307 2.27639,1.73685 4.02167,2.47258 1.041523,0.43906 1.820343,0.86104 1.820343,0.9863 0,0.10662 -0.1308,0.0964 -0.55034,-0.0428 z"
       id="path1" /></g></svg>
