<?xml version="1.0" encoding="UTF-8" standalone="no"?>
<!-- Created with Inkscape (http://www.inkscape.org/) -->

<svg
   width="62.902718mm"
   height="15.605637mm"
   viewBox="0 0 62.902718 15.605637"
   version="1.1"
   id="svg1"
   xml:space="preserve"
   inkscape:export-filename="seepferde-logo.svg"
   inkscape:export-xdpi="96"
   inkscape:export-ydpi="96"
   xmlns:inkscape="http://www.inkscape.org/namespaces/inkscape"
   xmlns:sodipodi="http://sodipodi.sourceforge.net/DTD/sodipodi-0.dtd"
   xmlns="http://www.w3.org/2000/svg"
   xmlns:svg="http://www.w3.org/2000/svg"><sodipodi:namedview
     id="namedview1"
     pagecolor="#ffffff"
     bordercolor="#000000"
     borderopacity="0.25"
     inkscape:showpageshadow="2"
     inkscape:pageopacity="0.0"
     inkscape:pagecheckerboard="0"
     inkscape:deskcolor="#d1d1d1"
     inkscape:document-units="mm" /><defs
     id="defs1" /><g
     inkscape:label="Layer 1"
     inkscape:groupmode="layer"
     id="layer1"
     transform="translate(-86.644777,-204.08692)"><path
       style="fill:#b19297;fill-opacity:1"
       d="m 106.49167,219.5366 c -0.79255,-0.13868 -1.95162,-0.55139 -2.57571,-0.91713 l -1.13471,-0.66498 -1.9222,0.60413 c -2.724607,0.85633 -7.927469,0.86227 -9.785547,0.0112 -1.824874,-0.83588 -3.528807,-2.51627 -4.023392,-3.9678 -0.856878,-2.51479 -0.356193,-4.49937 1.511674,-5.99185 1.307932,-1.04508 3.765486,-1.27363 5.21568,-0.48506 1.3175,0.71642 1.990785,2.04188 1.715522,3.37727 l -0.215573,1.04581 -0.194269,-1.22457 c -0.263259,-1.65945 -0.596964,-2.2018 -1.667247,-2.70969 -3.35994,-1.59439 -6.966689,1.49192 -5.988553,5.12444 0.867165,3.22041 5.023932,5.04668 9.698793,4.26117 1.121494,-0.18845 2.606566,-0.52591 3.300162,-0.74991 l 1.26108,-0.40729 -0.62393,-0.82415 c -1.692545,-2.2357 -1.916618,-6.00185 -0.49459,-8.31279 0.42056,-0.68344 1.34018,-1.62958 2.04361,-2.10252 1.14799,-0.77184 1.47379,-0.85989 3.18149,-0.85989 2.32102,0 4.32665,0.86591 5.17137,2.2327 0.7916,1.28083 0.65697,1.4703 -0.25693,0.36159 -2.15256,-2.61144 -7.0928,-2.19387 -9.03532,0.7637 -1.676894,2.55316 -1.707787,5.09335 -0.0917,7.53551 l 0.67163,1.0149 1.8768,-0.94514 1.87681,-0.94515 -0.57199,-0.60885 c -1.15019,-1.22432 -1.14983,-3.51624 7e-4,-4.44833 0.65054,-0.52702 0.76516,-0.54647 1.28427,-0.21788 0.29717,0.18811 0.16731,0.43243 -0.62901,1.18345 -0.8771,0.82721 -0.98219,1.05293 -0.83436,1.79207 0.18449,0.92247 0.8507,1.80643 1.36144,1.80643 0.17756,0 2.39153,-1.32545 4.91993,-2.94545 9.06318,-5.80694 12.25936,-7.24277 16.10648,-7.23558 1.97388,0.004 2.46867,0.10768 4.04528,0.85024 l 1.79632,0.84604 2.5693,-0.68401 c 2.19913,-0.58546 2.9505,-0.66588 5.21514,-0.55817 2.18528,0.10393 2.91207,0.25366 4.17538,0.86019 2.91844,1.40119 4.46296,4.06541 4.03012,6.95176 -0.3498,2.33262 -3.1289,4.30081 -5.4577,3.86519 -1.24809,-0.23346 -2.46751,-1.01806 -2.83466,-1.82387 -0.37923,-0.83231 -0.40649,-2.41674 -0.0454,-2.63989 0.16097,-0.0995 0.26458,0.28944 0.26458,0.99322 0,1.65476 1.04601,2.62866 2.97071,2.76592 1.90261,0.13568 3.28357,-0.65372 4.13071,-2.36125 0.56262,-1.13404 0.59204,-1.37426 0.32233,-2.63187 -0.7265,-3.38753 -3.99,-5.25058 -8.56125,-4.8874 -1.97739,0.1571 -4.94517,0.87106 -5.3647,1.29059 -0.0936,0.0936 0.0669,0.5044 0.35661,0.91296 1.33345,1.88054 1.74644,5.00616 0.96464,7.30061 -0.90219,2.64779 -3.72612,4.39875 -6.55407,4.06382 -1.75914,-0.20834 -3.59357,-1.17066 -4.33842,-2.27589 -0.82793,-1.2285 -0.74199,-1.66015 0.11419,-0.57351 1.44512,1.8341 4.49578,2.42589 6.83566,1.32602 3.02037,-1.41975 4.42206,-5.33618 3.01781,-8.432 -0.99664,-2.1972 -1.09425,-2.23298 -3.19943,-1.17283 l -1.8364,0.9248 0.64302,0.76418 c 1.30136,1.54658 1.11196,3.64174 -0.40612,4.49269 -0.60492,0.33908 -0.77191,0.34582 -1.05833,0.0427 -0.25891,-0.27401 -0.26431,-0.38781 -0.0226,-0.47676 0.17459,-0.0643 0.63421,-0.36601 1.02137,-0.67055 0.60685,-0.47735 0.68474,-0.69666 0.56486,-1.59041 -0.13938,-1.03918 -0.80626,-2.05397 -1.34978,-2.05397 -0.15957,0 -2.4926,1.38781 -5.18451,3.08404 -6.60529,4.1621 -9.4488,5.73248 -11.57381,6.39184 -2.2114,0.68616 -4.51403,0.88583 -6.40326,0.55525 z m 6.17486,-1.70652 c 1.00289,-0.4059 3.80086,-1.98839 6.2177,-3.51665 2.41685,-1.52826 5.52537,-3.48365 6.90781,-4.34531 l 2.51354,-1.56667 -1.71979,0.0982 c -2.1075,0.12031 -3.97009,0.9492 -8.3657,3.72288 -5.10328,3.22023 -5.62456,3.43392 -8.83221,3.62071 -2.40502,0.14005 -2.98926,0.27121 -4.35025,0.97657 -1.54025,0.79827 -1.55934,0.82163 -0.94149,1.15229 1.22821,0.65732 2.01113,0.78088 4.3657,0.68896 1.84294,-0.072 2.79345,-0.2598 4.20469,-0.83097 z m 0.55781,-3.39025 c 0.87312,-0.40158 3.03063,-1.67485 4.79446,-2.8295 4.47529,-2.92963 6.34974,-3.68885 9.1478,-3.7052 1.96529,-0.0115 2.37892,-0.10702 3.91711,-0.90475 l 1.71979,-0.8919 -1.05833,-0.48432 c -0.80431,-0.36807 -1.69339,-0.48307 -3.70417,-0.4791 -2.3991,0.005 -2.82783,0.0852 -4.59751,0.86234 -2.23139,0.97996 -5.18306,2.71293 -9.5577,5.61145 -1.67349,1.10881 -3.60825,2.34208 -4.29947,2.74059 -0.69122,0.39852 -1.25677,0.79296 -1.25677,0.87654 0,0.42921 3.45098,-0.1321 4.89479,-0.79615 z"
       id="path1" /></g></svg>
