<?xml version="1.0" encoding="UTF-8" standalone="no"?>
<!-- Created with Inkscape (http://www.inkscape.org/) -->

<svg
   width="63.553791mm"
   height="35.997158mm"
   viewBox="0 0 63.553791 35.997158"
   version="1.1"
   id="svg1"
   xml:space="preserve"
   inkscape:export-filename="seepferde-logo.png"
   inkscape:export-xdpi="96"
   inkscape:export-ydpi="96"
   xmlns:inkscape="http://www.inkscape.org/namespaces/inkscape"
   xmlns:sodipodi="http://sodipodi.sourceforge.net/DTD/sodipodi-0.dtd"
   xmlns="http://www.w3.org/2000/svg"
   xmlns:svg="http://www.w3.org/2000/svg"><sodipodi:namedview
     id="namedview1"
     pagecolor="#ffffff"
     bordercolor="#000000"
     borderopacity="0.25"
     inkscape:showpageshadow="2"
     inkscape:pageopacity="0.0"
     inkscape:pagecheckerboard="0"
     inkscape:deskcolor="#d1d1d1"
     inkscape:document-units="mm" /><defs
     id="defs1" /><g
     inkscape:label="Layer 1"
     inkscape:groupmode="layer"
     id="layer1"
     transform="translate(-69.292787,-149.22775)"><path
       style="fill:#894960;fill-opacity:1"
       d="m 85.917751,185.14618 c -0.90618,-0.21224 -1.5961,-0.73424 -1.96666,-1.48801 -0.28018,-0.56992 -0.30997,-1.63409 -0.0702,-2.50804 0.27347,-0.99682 0.949,-2.2951 2.02479,-3.8914 0.534,-0.79237 1.17618,-1.74548 1.42707,-2.11802 0.6015,-0.89314 1.24472,-2.21673 1.46067,-3.00566 0.81325,-2.97109 0.007,-7.20902 -1.93301,-10.16 -0.46708,-0.7105 -1.58409,-2.0182 -1.90163,-2.22626 l -0.20718,-0.13574 0.12145,0.39783 c 0.22606,0.74053 0.2402,1.67162 0.0376,2.47943 l -0.18227,0.72693 0.34517,0.86034 c 0.50557,1.26012 0.61611,1.8795 0.56164,3.1468 -0.0762,1.77351 -0.42946,2.81488 -1.99592,5.88433 -0.54659,1.07104 -1.11486,2.26508 -1.26282,2.65342 -0.99332,2.60721 -0.96381,5.00762 0.0947,7.7061 0.35956,0.91659 0.36127,1.15515 0.008,1.15515 -0.19467,0 -0.50254,-0.59725 -0.87286,-1.69333 -0.77252,-2.28653 -0.78339,-4.52547 -0.0331,-6.83064 0.19395,-0.59591 0.7158,-1.75461 1.42974,-3.17451 1.68154,-3.34432 2.01276,-4.33248 2.01006,-5.99685 -0.002,-0.98292 -0.15194,-1.76876 -0.48309,-2.52502 l -0.17881,-0.40835 -0.44126,0.6354 c -0.97583,1.40517 -2.64984,2.30477 -3.99285,2.14571 -0.39089,-0.0463 -0.43196,-0.0299 -1.0066,0.40241 -0.32949,0.24787 -0.95462,0.66844 -1.38918,0.93459 -2.03876,1.24865 -2.0089,1.21944 -2.19058,2.14294 -0.14002,0.7117 -0.44859,1.12317 -1.05872,1.41181 -0.63207,0.29902 -1.17068,0.34297 -2.18085,0.17799 -1.42829,-0.23328 -2.064892,-0.72017 -2.258762,-1.72757 -0.05087,-0.26432 -0.195845,-0.80443 -0.322173,-1.20024 -0.366162,-1.14729 -0.302442,-1.51773 0.444183,-2.58234 0.656512,-0.93611 3.261442,-5.32933 3.559162,-6.00253 0.13186,-0.29816 0.23435,-0.75297 0.28812,-1.27852 0.11168,-1.09158 0.27593,-1.39959 1.25267,-2.34904 0.44354,-0.43115 0.98938,-1.04226 1.21299,-1.35802 l 0.40655,-0.57412 -0.27211,-0.40436 c -0.46138,-0.6856 -0.60192,-1.26401 -0.60192,-2.47733 0,-1.11463 0.0658,-1.34641 0.38205,-1.34641 0.16021,0 1.04255,0.61148 1.51147,1.04748 l 0.28486,0.26485 -0.0546,-0.55033 c -0.0671,-0.67634 0.0757,-1.85479 0.24521,-2.02431 0.11001,-0.11001 0.19798,-0.0753 0.74058,0.29259 0.91379,0.61949 2.08863,1.82576 2.44097,2.50625 l 0.29143,0.56286 0.71863,-0.42532 c 1.84096,-1.08956 3.91081,-1.55592 5.99234,-1.35014 1.1522,0.11391 2.303,0.39576 4.54969,1.11429 0.88477,0.28296 1.970621,0.57427 2.413001,0.64736 1.46988,0.24283 2.79383,0.0431 4.28683,-0.64664 0.404408,-0.18684 0.744708,-0.32986 0.756228,-0.31782 0.0115,0.012 -0.0845,0.25347 -0.21325,0.53653 -0.517398,1.13703 -1.865788,2.06689 -3.461408,2.38699 l -0.79061,0.15861 1.00227,0.38926 c 3.624278,1.40761 5.987768,1.51409 8.251908,0.37177 0.73984,-0.37327 1.00536,-0.39494 1.00536,-0.0821 0,0.42482 -1.71193,1.90392 -2.8179,2.43463 -1.10751,0.53147 -1.80252,0.67885 -3.21456,0.68167 -0.686838,0.001 -1.248808,0.01 -1.248828,0.0182 -2e-5,0.009 0.35059,0.25029 0.77913,0.53694 0.976488,0.65316 2.050808,1.19545 3.056568,1.54288 0.72781,0.25141 0.85591,0.26914 1.96393,0.27176 0.98982,0.002 1.29007,-0.0286 1.82033,-0.1876 1.89996,-0.56966 2.32372,-0.68858 2.35221,-0.66008 0.0421,0.0421 -1.43075,1.18134 -2.00927,1.55416 -2.19429,1.41405 -4.73816,1.77675 -7.116268,1.01461 -1.58734,-0.5087 -2.96369,-1.39395 -5.630341,-3.62134 -3.05943,-2.55548 -4.14533,-3.32391 -5.92666,-4.19401 -1.74022,-0.85002 -3.87704,-1.44836 -5.4958,-1.53889 l -0.8542,-0.0478 -0.006,0.66713 c -0.007,0.74563 -0.15406,1.16141 -0.42559,1.20038 -0.29084,0.0417 -0.40586,-0.17654 -0.28539,-0.54157 0.17542,-0.53152 0.0654,-1.4669 -0.24734,-2.10209 -0.29111,-0.59133 -1.18223,-1.55819 -1.91133,-2.07379 l -0.40942,-0.28952 0.0476,0.92452 c 0.0337,0.65416 0.11308,1.13499 0.27153,1.6442 0.35289,1.13403 0.34966,1.08299 0.0755,1.19227 -1.14048,0.45452 -1.17436,0.48312 -1.97584,1.66735 -0.31798,0.46984 -0.83035,1.06665 -1.27551,1.48569 -0.96988,0.91301 -1.08127,1.11276 -1.2231,2.19329 -0.0632,0.48166 -0.18204,1.04584 -0.26403,1.25374 -0.18418,0.46696 -2.60545,4.58256 -3.51266,5.97067 -0.366882,0.56137 -0.690054,1.13564 -0.718156,1.27615 -0.03316,0.1658 0.02316,0.47619 0.16045,0.88432 0.116349,0.34587 0.252844,0.8765 0.303321,1.17918 0.110561,0.66297 0.277225,0.91307 0.774695,1.16249 0.52519,0.26331 1.98054,0.42771 2.4756,0.27964 0.72022,-0.21542 0.84244,-0.37589 1.12135,-1.47232 0.17219,-0.6769 0.41468,-0.96194 1.23739,-1.45451 0.88491,-0.52982 2.6123,-1.67354 2.60689,-1.72606 -0.003,-0.0269 -0.3171,-0.2013 -0.6985,-0.38757 -0.72274,-0.35297 -0.88932,-0.57152 -0.61141,-0.80217 0.11155,-0.0926 0.24979,-0.0558 0.87192,0.23187 0.94375,0.43639 1.28438,0.52691 1.98502,0.52749 1.35408,0.001 2.77956,-0.96002 3.54012,-2.38697 l 0.26998,-0.50654 -0.30523,-0.7755 c -0.39739,-1.00968 -0.53567,-1.49194 -0.64124,-2.23636 -0.2259,-1.59274 0.49279,-2.22912 1.66623,-1.4754 0.38215,0.24546 1.5439,1.36324 1.99578,1.92025 1.24612,1.536 2.24638,3.76003 2.74169,6.096 0.21186,0.99919 0.23322,1.26067 0.23166,2.83633 -0.002,1.61588 -0.0174,1.79396 -0.22967,2.58034 -0.28513,1.05651 -0.87332,2.26821 -1.68607,3.47332 -0.34545,0.51224 -0.98858,1.46474 -1.42918,2.11667 -1.24119,1.83654 -1.90306,3.28269 -1.99564,4.36033 -0.12415,1.44526 0.70365,2.35514 2.21591,2.43562 0.83954,0.0447 1.57651,-0.11761 2.62789,-0.57871 0.8182,-0.35884 1.05511,-0.36529 1.05511,-0.0287 0,0.1613 -0.10157,0.25266 -0.51033,0.459 -1.34563,0.67927 -2.82329,0.96384 -3.80767,0.73329 z m 17.671539,-22.86979 c 0.53189,-0.11189 2.0558,-0.6188 2.0558,-0.68384 0,-0.0153 -0.42863,-0.0287 -0.9525,-0.0297 -1.85823,-0.004 -3.70672,-0.72703 -5.990168,-2.34408 -2.00964,-1.42314 -2.51212,-1.65679 -3.90361,-1.81513 -1.149461,-0.1308 -1.176391,-0.13962 -1.176391,-0.3853 0,-0.27347 0.26454,-0.37729 0.96139,-0.37729 0.712961,0 1.388171,0.18413 2.298281,0.62674 2.02163,0.98319 4.706878,0.8782 6.688428,-0.26149 0.30007,-0.17258 0.53461,-0.32477 0.52119,-0.33818 -0.0134,-0.0134 -0.30758,0.0366 -0.65368,0.11118 -0.8308,0.179 -2.36755,0.17786 -3.33861,-0.002 -1.041788,-0.19348 -2.435378,-0.63713 -4.148668,-1.32074 -2.848911,-1.13672 -3.734791,-1.3742 -5.164661,-1.38448 -0.83803,-0.006 -1.98967,0.15764 -1.98967,0.28276 0,0.0357 0.1151,0.11249 0.25577,0.17076 0.4229,0.17517 2.26231,1.41031 3.21346,2.1578 0.49011,0.38516 1.4626,1.18637 2.1611,1.78046 2.994231,2.54664 4.689561,3.53511 6.646339,3.87516 0.49962,0.0868 1.98207,0.0502 2.5162,-0.0622 z m -19.195539,-0.8413 c 0,-0.71957 -0.14595,-1.37024 -0.43439,-1.93654 -0.48814,-0.95838 -0.4411,0.50833 0.0665,2.07491 0.11705,0.36121 0.2477,0.63519 0.29033,0.60884 0.0426,-0.0263 0.0775,-0.3626 0.0775,-0.74721 z m -6.29929,-7.97871 0.20375,-0.0511 -0.19073,-0.34017 c -0.18786,-0.33506 -1.445,-1.58869 -1.59314,-1.58869 -0.28489,0 -0.12274,1.36191 0.26005,2.18417 l 0.24821,0.53317 0.43406,-0.3431 c 0.23873,-0.18871 0.52575,-0.36611 0.6378,-0.39424 z m 18.956961,0.39414 c 0.54318,-0.17324 1.52879,-0.6619 1.46457,-0.72612 -0.0149,-0.0149 -0.29342,0.0303 -0.61886,0.10048 -0.43336,0.0935 -0.89759,0.11629 -1.73471,0.0853 -1.27628,-0.0473 -1.654551,-0.13117 -3.937001,-0.87294 -2.07722,-0.67508 -3.01015,-0.8747 -4.36033,-0.93301 -1.62387,-0.0701 -3.01848,0.19414 -4.38439,0.83083 l -0.56861,0.26505 0.93133,0.15894 c 1.19125,0.20331 2.34371,0.51486 3.28002,0.88669 l 0.74001,0.29389 0.69932,-0.22577 c 0.55386,-0.17882 0.92424,-0.23482 1.78073,-0.26925 1.22514,-0.0493 1.89562,0.0368 3.15192,0.40475 0.775,0.22695 0.93625,0.2455 1.905001,0.21908 0.80088,-0.0218 1.20251,-0.0748 1.651,-0.21789 z m -4.445001,26.81178 c 0,-0.28841 0.37176,-0.80778 2.861401,-3.99759 l 0.85907,-1.10066 -1.817901,-0.0228 -1.8179,-0.0228 v -0.29468 -0.29468 h 2.286001 2.286 v 0.24841 c 0,0.19306 -0.36164,0.71659 -1.62297,2.3495 -0.89263,1.1556 -1.731591,2.23444 -1.864351,2.39742 l -0.24138,0.29633 1.927851,0.0423 1.92785,0.0423 v 0.29633 0.29634 l -2.39184,0.0225 -2.391831,0.0225 z m 6.437101,0.0927 c -0.0843,-0.19816 -1.52643,-4.22575 -1.52643,-4.26311 0,-0.0111 0.13776,-0.0364 0.30614,-0.056 0.28925,-0.0338 0.31421,-0.0168 0.45255,0.30824 0.0805,0.18919 0.36582,1.00359 0.63399,1.80979 0.26817,0.80619 0.50023,1.45316 0.51569,1.43771 0.0155,-0.0155 0.30131,-0.78937 0.635238,-1.71981 0.33393,-0.93044 0.64584,-1.73934 0.69313,-1.79755 0.0473,-0.0582 0.17191,-0.10583 0.27692,-0.10583 0.10502,0 0.22758,0.0476 0.27238,0.10583 0.0448,0.0582 0.33975,0.82974 0.65547,1.7145 0.31571,0.88477 0.60043,1.65783 0.6327,1.71792 0.0332,0.0617 0.28529,-0.54758 0.57982,-1.40127 0.76749,-2.22452 0.73844,-2.16658 1.05476,-2.10332 0.14512,0.029 0.27311,0.062 0.28441,0.0733 0.0184,0.0184 -1.1615,3.39476 -1.44206,4.12635 -0.10273,0.26789 -0.14503,0.29634 -0.44056,0.29634 h -0.32692 l -0.64116,-1.75823 -0.64117,-1.75822 -0.63422,1.75822 -0.634228,1.75823 -0.31161,0.0263 c -0.25829,0.0217 -0.32585,-0.007 -0.39484,-0.16934 z m 7.258918,0.10112 c -0.60002,-0.18067 -1.16797,-0.73203 -1.38793,-1.34739 -0.13243,-0.37048 -0.14653,-1.20698 -0.0276,-1.63534 0.12447,-0.4482 0.57572,-1.00375 1.01609,-1.25097 0.5142,-0.28866 1.47446,-0.29907 1.99869,-0.0217 0.66764,0.3533 1.13002,1.16526 1.13002,1.98436 v 0.3233 h -1.778 c -1.98793,0 -1.92326,-0.024 -1.60699,0.59595 0.4503,0.88266 1.75152,1.11144 2.54137,0.44683 l 0.25274,-0.21267 0.16562,0.19878 c 0.20981,0.2518 0.20946,0.2604 -0.0192,0.4751 -0.48503,0.45533 -1.55567,0.66325 -2.28481,0.44371 z m 2.01294,-2.7732 c -0.15789,-0.64053 -0.75867,-1.12183 -1.40029,-1.12183 -0.46353,0 -1.02612,0.32466 -1.2471,0.71966 -0.36053,0.64449 -0.37929,0.635 1.25627,0.635 h 1.44852 z m 1.70415,2.80106 c -0.0311,-0.031 -0.0564,-1.0407 -0.0564,-2.24367 v -2.18722 h 0.33867 c 0.33146,0 0.33866,0.006 0.33866,0.30032 v 0.30032 l 0.3175,-0.24752 c 1.0469,-0.81617 2.57371,-0.43184 2.89611,0.72901 0.0481,0.17318 0.0877,1.01249 0.0879,1.86515 l 4.7e-4,1.55027 -0.3175,-0.0263 -0.3175,-0.0263 -0.0423,-1.56634 c -0.043,-1.59056 -0.0768,-1.76069 -0.4093,-2.06163 -0.38591,-0.34925 -1.29223,-0.31931 -1.69424,0.056 -0.4244,0.39617 -0.47225,0.59981 -0.50608,2.15384 l -0.0318,1.4605 h -0.27385 c -0.15061,0 -0.29924,-0.0254 -0.33028,-0.0564 z m 5.23345,-0.0446 c -0.0235,-0.0613 -0.0327,-1.48281 -0.0205,-3.15898 l 0.0223,-3.0476 0.35832,-0.026 0.35831,-0.026 0.0227,2.03785 0.0227,2.03785 1.20491,-1.14405 c 1.13671,-1.07931 1.22416,-1.14406 1.54517,-1.14406 0.18714,0 0.34026,0.0293 0.34026,0.0651 0,0.0358 -0.381,0.44466 -0.84667,0.90858 -0.46567,0.46392 -0.84667,0.88317 -0.84667,0.93167 0,0.0485 0.43349,0.63977 0.96332,1.31393 0.52982,0.67415 0.94667,1.25431 0.92633,1.28923 -0.0203,0.0349 -0.19683,0.0635 -0.39221,0.0635 h -0.35523 l -0.8375,-1.1067 -0.8375,-1.10669 -0.44998,0.44439 -0.44998,0.44438 -0.0245,0.64115 -0.0245,0.64114 -0.31818,0.0263 c -0.20519,0.017 -0.33336,-0.0132 -0.36092,-0.0851 z m 5.12583,-0.0894 c -0.53048,-0.27106 -0.72139,-0.56795 -0.72139,-1.12183 0,-0.51942 0.18028,-0.82762 0.64385,-1.10067 0.23568,-0.13882 0.47607,-0.17476 1.33404,-0.19946 l 1.04655,-0.0301 -0.056,-0.35087 c -0.0752,-0.47125 -0.2527,-0.72015 -0.62423,-0.87538 -0.40749,-0.17026 -1.0151,-0.097 -1.51559,0.18273 -0.47391,0.26487 -0.4823,0.26483 -0.60444,-0.003 -0.1278,-0.28049 -0.0898,-0.33256 0.43798,-0.60046 0.57946,-0.29413 1.42782,-0.3639 1.95884,-0.1611 0.41461,0.15834 0.85431,0.60034 0.95494,0.95995 0.0356,0.12721 0.0647,0.95518 0.0647,1.83995 v 1.60867 h -0.29633 c -0.27394,0 -0.29962,-0.0224 -0.33984,-0.29634 -0.0298,-0.20262 -0.0611,-0.25291 -0.099,-0.15902 -0.0305,0.0755 -0.223,0.2184 -0.42773,0.3175 -0.5141,0.24888 -1.25766,0.24451 -1.75636,-0.0103 z m 1.73394,-0.56276 c 0.31335,-0.17456 0.55003,-0.62448 0.5502,-1.04591 l 1.3e-4,-0.3175 -0.6985,0.002 c -1.21275,0.004 -1.67216,0.21359 -1.67216,0.76464 0,0.69533 1.03456,1.03448 1.82033,0.59675 z m 3.556,0.64984 c -0.43299,-0.15352 -0.6973,-0.38985 -0.9029,-0.80734 -0.18185,-0.36926 -0.20011,-0.5293 -0.22686,-1.98907 l -0.0291,-1.5875 h 0.33837 0.33837 l 0.0294,1.50283 c 0.0259,1.32517 0.0498,1.53787 0.20161,1.79917 0.4596,0.79085 1.59025,0.7742 2.19322,-0.0323 0.15701,-0.21001 0.17882,-0.38831 0.2169,-1.77277 l 0.0423,-1.53929 0.3175,-0.0263 0.3175,-0.0263 v 2.29622 2.29622 l -0.3175,-0.0263 c -0.28984,-0.024 -0.32119,-0.0514 -0.35983,-0.31521 -0.0396,-0.2705 -0.0504,-0.27909 -0.16934,-0.13475 -0.33019,0.40086 -1.35499,0.58761 -1.98966,0.36259 z m -17.907,-9.92958 v -3.09033 h 0.29634 c 0.29604,0 0.29633,3.8e-4 0.29633,0.39242 v 0.39241 l 0.16966,-0.21569 c 0.27733,-0.35257 0.86968,-0.59049 1.46643,-0.58901 0.69219,0.002 1.16795,0.20544 1.58427,0.6784 0.93616,1.06353 0.72308,2.8544 -0.42222,3.54868 -0.79092,0.47947 -1.64814,0.45811 -2.36176,-0.0588 l -0.35171,-0.25478 v 1.14353 1.14353 h -0.33867 -0.33867 z m 2.88975,0.66828 c 0.99219,-0.49829 1.09782,-2.191 0.18039,-2.89075 -0.41454,-0.31619 -1.14814,-0.36696 -1.60359,-0.11098 -0.49371,0.27748 -0.73372,0.68652 -0.774,1.31912 -0.0426,0.66866 0.0775,1.03646 0.46468,1.42367 0.45331,0.45331 1.14088,0.55607 1.73252,0.25894 z m -16.768189,0.68436 c -0.45318,-0.12724 -0.91616,-0.36901 -1.14514,-0.59798 -0.0936,-0.0936 -0.0981,-0.16996 -0.0215,-0.37271 0.11138,-0.29507 0.22782,-0.3202 0.43302,-0.0934 0.2873,0.31745 0.97686,0.54309 1.665891,0.54512 0.77134,0.002 1.14164,-0.17146 1.37476,-0.64498 0.1304,-0.26486 0.13942,-0.36156 0.057,-0.61122 -0.12467,-0.37774 -0.32422,-0.51553 -1.05858,-0.73089 -1.294881,-0.37974 -1.667371,-0.52225 -1.919341,-0.73426 -0.70237,-0.591 -0.63885,-1.75627 0.12759,-2.34086 0.15628,-0.1192 0.54308,-0.28063 0.85956,-0.35873 0.489871,-0.12089 0.662371,-0.12709 1.160261,-0.0417 0.47227,0.081 1.15384,0.33137 1.32849,0.48805 0.0244,0.0219 -0.12174,0.46534 -0.19842,0.60217 -0.005,0.009 -0.2327,-0.0953 -0.50532,-0.23284 -0.40599,-0.20478 -0.60126,-0.25002 -1.07914,-0.25002 -0.320901,0 -0.714751,0.0548 -0.875211,0.1219 -0.38956,0.16277 -0.65558,0.5933 -0.59921,0.96974 0.0811,0.5414 0.38384,0.7199 1.954741,1.15246 0.76645,0.21105 1.21533,0.50473 1.40292,0.91786 0.39066,0.86037 0.0161,1.75537 -0.89342,2.13476 -0.4742,0.19781 -1.503321,0.2364 -2.068951,0.0776 z m 5.302851,0.009 c -1.50901,-0.40581 -2.08471,-2.52388 -1.0231,-3.76413 0.80903,-0.94517 2.395218,-0.95839 3.163458,-0.0264 0.34376,0.41704 0.56432,1.13659 0.51754,1.68842 -0.007,0.081 -0.42613,0.10583 -1.78859,0.10583 h -1.779608 l 0.0558,0.23283 c 0.2857,1.1915 1.64122,1.65039 2.640848,0.89403 0.26869,-0.20331 0.28733,-0.20598 0.4445,-0.0637 0.0902,0.0817 0.16405,0.19632 0.16405,0.25481 0,0.18415 -0.4987,0.53542 -0.95072,0.66965 -0.51747,0.15367 -0.896558,0.15595 -1.444208,0.009 z m 1.971588,-2.68323 c 0,-0.30408 -0.34288,-0.80822 -0.67767,-0.99638 -0.841588,-0.473 -1.946798,-0.006 -2.091178,0.88385 l -0.0473,0.2915 h 1.40808 c 1.376908,0 1.408078,-0.004 1.408078,-0.17897 z m 3.00567,2.72937 c -1.07852,-0.28571 -1.66694,-1.08234 -1.67457,-2.2671 -0.009,-1.3535 0.87337,-2.25403 2.20039,-2.24637 1.1623,0.007 2.05423,0.94023 2.05604,2.15192 l 4.7e-4,0.31585 -1.81251,0.0228 -1.81252,0.0228 0.1148,0.33378 c 0.16019,0.46574 0.37467,0.72675 0.76337,0.92897 0.58394,0.30379 1.54473,0.18156 1.89556,-0.24116 0.15348,-0.18493 0.27571,-0.16194 0.45614,0.0858 0.18975,0.26053 0.13321,0.34421 -0.44539,0.65913 -0.45314,0.24663 -1.27596,0.35696 -1.74178,0.23356 z m 1.87255,-2.81849 c -0.0699,-0.34936 -0.4158,-0.79733 -0.74861,-0.96943 -0.33307,-0.17224 -0.9763,-0.17617 -1.29975,-0.008 -0.42775,0.22245 -0.79786,0.71907 -0.79786,1.07058 0,0.16995 0.0411,0.1749 1.44992,0.1749 h 1.44992 z m 10.90627,2.73886 c -0.9969,-0.34464 -1.50156,-1.0775 -1.49762,-2.17479 0.004,-0.97865 0.39749,-1.65994 1.18179,-2.04367 0.86078,-0.42114 1.87023,-0.24697 2.45969,0.42439 0.34448,0.39234 0.51521,0.79531 0.58364,1.37756 l 0.0533,0.45374 h -1.78966 -1.78966 l 0.001,0.1905 c 0.002,0.31964 0.36411,0.85375 0.7095,1.04749 0.40838,0.22908 0.84636,0.30091 1.25952,0.20658 0.28167,-0.0643 0.44368,-0.15104 0.87171,-0.46663 0.0765,-0.0564 0.16086,-0.0184 0.28243,0.127 l 0.17338,0.20739 -0.28716,0.26977 c -0.3097,0.29094 -0.9929,0.53627 -1.48097,0.5318 -0.16617,-0.002 -0.49526,-0.0695 -0.73131,-0.15113 z m 2.02758,-2.7036 c -0.16893,-0.70452 -0.68022,-1.12934 -1.3656,-1.13465 -0.6355,-0.005 -1.16141,0.33522 -1.37016,0.88616 -0.18643,0.49205 -0.21654,0.48132 1.35064,0.48132 h 1.44094 z m 5.69734,2.72007 c -0.55264,-0.16979 -1.08858,-0.71231 -1.28355,-1.29931 -0.29418,-0.8857 -0.0742,-1.97636 0.5198,-2.57731 0.73536,-0.74395 2.07594,-0.78524 2.82367,-0.087 l 0.21167,0.19767 v -1.2445 -1.2445 h 0.33867 0.33866 l 0.0222,3.15383 0.0222,3.15383 h -0.33969 -0.3397 v -0.34526 -0.34527 l -0.34362,0.29413 c -0.54182,0.46377 -1.2036,0.57919 -1.97031,0.34364 z m 1.24003,-0.5779 c 0.65726,-0.23441 1.01801,-0.80601 1.01801,-1.61301 0,-0.95146 -0.50767,-1.56423 -1.3541,-1.63442 -0.54879,-0.0455 -0.87835,0.079 -1.21045,0.45721 -0.79248,0.90258 -0.42838,2.45681 0.65607,2.80054 0.40694,0.12899 0.50297,0.12787 0.89047,-0.0103 z m 4.17609,0.57715 c -0.54437,-0.16719 -1.16081,-0.77817 -1.35237,-1.34038 -0.39089,-1.14719 0.0882,-2.44082 1.08206,-2.92196 0.41762,-0.20216 1.27168,-0.24882 1.68414,-0.092 0.69843,0.26554 1.22701,1.02515 1.30397,1.8739 l 0.0455,0.50195 h -1.78976 c -1.37635,0 -1.78933,0.0245 -1.7879,0.10583 0.004,0.23637 0.32934,0.80417 0.58261,1.01728 0.5735,0.48256 1.47821,0.48658 2.1039,0.009 0.27365,-0.20872 0.29236,-0.21161 0.44958,-0.0693 0.23268,0.21057 0.20538,0.33607 -0.12847,0.59071 -0.57947,0.44199 -1.41068,0.56503 -2.19328,0.32466 z m 2.02974,-2.76166 c -0.23208,-1.18491 -1.95669,-1.49372 -2.57679,-0.46139 -0.0895,0.14899 -0.1874,0.37567 -0.21755,0.50373 l -0.0548,0.23283 h 1.45153 1.45153 z m -18.84793,0.86784 v -1.94733 h -0.381 c -0.37899,0 -0.381,-0.002 -0.381,-0.29634 0,-0.29337 0.004,-0.29633 0.36924,-0.29633 h 0.36924 l 0.0459,-0.50587 c 0.0552,-0.60894 0.29516,-1.03329 0.69027,-1.22078 0.35819,-0.16997 0.89419,-0.17444 1.28601,-0.0107 0.254,0.10613 0.29097,0.15469 0.24176,0.3175 -0.093,0.30754 -0.17866,0.35207 -0.45627,0.23708 -0.62212,-0.25769 -1.10679,0.11013 -1.10679,0.83993 v 0.34287 h 0.67733 0.67733 v 0.29633 0.29634 h -0.67733 -0.67733 v 1.94733 1.94733 h -0.33867 -0.33867 z m 7.366,-0.29634 v -2.24366 h 0.33866 0.33867 v 0.35103 0.35103 l 0.2116,-0.22833 c 0.26224,-0.28296 0.70441,-0.47373 1.09801,-0.47373 0.28342,0 0.29905,0.015 0.29905,0.28672 0,0.27486 -0.0157,0.28908 -0.38059,0.34379 -0.42601,0.0639 -0.82049,0.35093 -1.03812,0.75541 -0.11296,0.20994 -0.14932,0.56007 -0.17483,1.68324 l -0.0322,1.41817 h -0.33013 -0.33013 z"
       id="path1" /></g></svg>
